<svg width="80" height="80" viewBox="0 0 80 80" fill="none" xmlns="http://www.w3.org/2000/svg">
<circle cx="40" cy="40" r="40" fill="white"/>
<path d="M4 44.4227C4 42.3562 4 40.2897 4 38.2232C4.14904 37.19 4.13041 36.1567 4.24219 35.1235C4.50302 32.3807 5.37864 29.8258 6.40331 27.3084C7.83785 23.7766 9.81266 20.5829 12.2532 17.6898C16.2215 13.0308 21.0468 9.55537 26.729 7.3198C29.2441 6.32413 31.8337 5.51632 34.5537 5.32845C37.3297 5.14059 40.1056 5.17816 42.9001 5.21574C47.6695 5.29088 52.029 6.73742 56.2208 8.84149C56.5562 9.01056 56.9847 9.12328 57.0219 9.63051C57.4132 11.2649 57.823 12.8993 58.0839 14.5525C58.5682 17.7838 58.7173 21.015 58.4192 24.265C58.4006 24.5092 58.3819 24.7347 58.177 24.9037C57.9348 25.2795 57.5808 25.1855 57.2455 25.0916C55.1216 24.528 53.2027 24.9977 51.6191 26.5194C50.5199 27.5902 49.4021 28.661 48.4333 29.8633C48.2657 30.07 48.098 30.2578 47.9117 30.4269C46.2722 32.0237 44.7445 33.7333 43.161 35.3865C40.4037 38.2984 37.665 41.2478 34.8705 44.1409C34.7959 44.216 34.74 44.2724 34.6655 44.3475C34.3116 44.7608 33.9203 44.7984 33.5291 44.4039C32.3554 43.2016 31.1258 42.0556 30.0079 40.7781C28.8715 39.5007 27.7164 38.242 26.3937 37.1524C24.6797 35.7246 22.649 35.3865 20.5437 36.2131C18.4571 37.0209 17.1716 38.5802 16.7804 40.8157C16.4451 42.7695 17.0412 44.4415 18.3267 45.9256C19.2582 47.0152 20.2829 47.9921 21.2703 49.0253C23.3569 51.167 25.3876 53.3649 27.4928 55.4878C28.2194 56.2205 28.8901 56.9907 29.5981 57.7421C29.8589 58.0239 30.1384 58.3057 29.8589 58.719C29.6167 59.0196 29.2441 59.0384 28.9088 59.1323C26.0583 59.8274 23.1706 60.2407 20.227 60.2971C16.6314 60.3722 13.0916 60.0341 9.5891 59.1511C9.21649 59.0572 8.86252 58.8505 8.45265 58.8693C8.08004 58.8881 7.91237 58.6251 7.78196 58.3433C5.80714 54.4358 4.24219 50.4155 4.11178 45.9632C4.11178 45.4371 4.14904 44.9299 4 44.4227Z" fill="#74D97F"/>
<path d="M57.9499 24.9599C58.2107 22.9122 58.2666 20.8645 58.1548 18.798C57.9872 15.8485 57.54 12.9366 56.7576 10.0811C56.7203 9.91206 56.683 9.76177 56.8134 9.63027C57.1674 9.34847 57.4841 9.57391 57.7822 9.74298C59.5335 10.795 61.2102 11.9034 62.7565 13.2372C66.0541 16.1115 68.9418 19.3428 71.1029 23.194C73.2081 26.97 74.8103 30.9339 75.3506 35.2547C75.7046 38.0915 75.686 40.9658 75.5742 43.8401C75.4997 46.0944 75.3506 48.3488 74.7545 50.528C73.2827 55.8821 70.8421 60.7101 67.2464 64.9183C64.1165 68.6004 60.4464 71.5874 56.1614 73.7854C53.2923 75.2695 50.2742 76.3591 47.0884 76.979C45.7843 77.2233 44.4429 77.2233 43.1201 77.3172C42.9338 77.336 42.7475 77.2608 42.5799 77.3923C42.4308 77.3923 42.3004 77.3923 42.1514 77.3923C42.0582 77.2984 41.9651 77.2984 41.8719 77.3923C41.5925 77.3923 41.313 77.3923 41.0336 77.3923C40.7541 77.2796 40.4746 77.2796 40.1952 77.3923C39.9157 77.3923 39.6363 77.3923 39.3568 77.3923C39.0215 77.2796 38.7048 77.2796 38.3694 77.3923C38.1272 77.3923 37.9037 77.3923 37.6615 77.3923C37.5683 77.2984 37.4752 77.2984 37.382 77.3923C37.1957 77.3923 37.0094 77.3923 36.8231 77.3923C35.8357 77.2233 34.8297 77.2233 33.8236 77.1481C31.5321 76.9603 29.371 76.2652 27.2285 75.4574C23.5397 74.086 20.1489 72.1698 17.0936 69.6524C13.6097 66.7781 10.6847 63.4153 8.4491 59.4514C8.30005 59.2072 8.16964 58.9442 8.43047 58.6812C8.59814 58.4746 8.80307 58.5497 9.00801 58.6061C12.3056 59.5078 15.659 59.9775 19.0684 59.9775C22.7386 59.9775 26.3528 59.5642 29.874 58.4934C30.1348 58.3243 30.3584 58.4182 30.5819 58.5873C33.5069 60.635 36.8231 59.8272 38.8724 57.4601C39.9903 56.1639 41.2012 54.9803 42.3749 53.7216C43.884 52.106 45.4303 50.4904 46.958 48.8936C49.8643 45.8502 52.7334 42.788 55.6211 39.7259C57.0556 38.2042 58.5274 36.6825 59.9433 35.1232C62.7752 32.0047 61.825 27.4772 58.5274 25.655C58.248 25.5047 57.894 25.3919 57.9499 24.9599Z" fill="#2AD252"/>
<path d="M38.375 77.3916C38.7105 77.1864 39.0274 77.2051 39.3629 77.3916C39.0274 77.3916 38.7105 77.3916 38.375 77.3916Z" fill="#039123"/>
<path d="M40.2031 77.3908C40.4827 77.2229 40.7623 77.2043 41.0419 77.3908C40.7623 77.3908 40.4827 77.3908 40.2031 77.3908Z" fill="#039123"/>
<path d="M37.4062 77.3915C37.4994 77.2236 37.5926 77.2423 37.6858 77.3915C37.5926 77.3915 37.4994 77.3915 37.4062 77.3915Z" fill="#97E9AA"/>
<path d="M41.875 77.3915C41.9682 77.2423 42.0614 77.2236 42.1546 77.3915C42.0614 77.3915 41.9682 77.3915 41.875 77.3915Z" fill="#97E9AA"/>
<path d="M57.9516 24.9595C59.7029 25.7673 61.007 27.0072 61.6218 28.8858C62.4043 31.3656 61.864 33.5636 60.0941 35.4422C56.07 39.7255 52.0458 43.9712 48.0217 48.2357C45.134 51.2978 42.1531 54.2849 39.3772 57.4409C36.6572 60.5219 32.8193 60.9164 29.8943 58.493C26.1124 54.5666 22.3491 50.6215 18.5671 46.714C17.4679 45.568 16.6482 44.3281 16.4246 42.7125C16.0706 40.0449 17.3748 37.4336 19.7408 36.1937C22.1255 34.935 25.0877 35.3107 26.988 37.2269C29.205 39.4437 31.3661 41.7168 33.5273 43.99C33.9371 44.4221 34.1607 44.516 34.6451 44.0088C39.9361 38.3729 45.3016 32.7746 50.5554 27.1011C52.6234 24.8468 55.008 24.0202 57.9516 24.9595Z" fill="#FEFEFE"/>
</svg>
