<svg width="32" height="32" viewBox="0 0 32 32" fill="none" xmlns="http://www.w3.org/2000/svg">
<mask id="mask0_459_1972" style="mask-type:alpha" maskUnits="userSpaceOnUse" x="0" y="0" width="32" height="32">
<rect width="32" height="32" fill="#D9D9D9"/>
</mask>
<g mask="url(#mask0_459_1972)">
<path d="M2.66602 12.0002V8.00016C2.66602 7.26683 2.92713 6.63905 3.44935 6.11683C3.97157 5.59461 4.59935 5.3335 5.33268 5.3335H26.666C27.3993 5.3335 28.0271 5.59461 28.5494 6.11683C29.0716 6.63905 29.3327 7.26683 29.3327 8.00016V16.0002H26.666V8.00016H5.33268V12.0002H2.66602ZM5.33268 26.6668C4.59935 26.6668 3.97157 26.4057 3.44935 25.8835C2.92713 25.3613 2.66602 24.7335 2.66602 24.0002V20.0002H5.33268V24.0002H14.666V26.6668H5.33268ZM23.9993 30.0002L21.966 28.2668C20.0105 26.6002 18.7493 25.3946 18.1827 24.6502C17.616 23.9057 17.3327 23.1335 17.3327 22.3335C17.3327 21.3335 17.6882 20.4724 18.3993 19.7502C19.1105 19.0279 19.9771 18.6668 20.9993 18.6668C21.5771 18.6668 22.1271 18.8002 22.6493 19.0668C23.1716 19.3335 23.6216 19.7224 23.9993 20.2335C24.3549 19.7224 24.7938 19.3335 25.316 19.0668C25.8382 18.8002 26.3993 18.6668 26.9993 18.6668C27.9993 18.6668 28.8605 19.0279 29.5827 19.7502C30.3049 20.4724 30.666 21.3335 30.666 22.3335C30.666 23.1335 30.3771 23.9057 29.7994 24.6502C29.2216 25.3946 27.9549 26.6002 25.9993 28.2668L23.9993 30.0002ZM23.9993 26.4668L24.9327 25.7002C26.1771 24.6335 26.9994 23.8835 27.3994 23.4502C27.7994 23.0168 27.9993 22.6446 27.9993 22.3335C27.9993 22.0668 27.8993 21.8335 27.6993 21.6335C27.4993 21.4335 27.266 21.3335 26.9993 21.3335C26.8216 21.3335 26.6605 21.3724 26.516 21.4502C26.3716 21.5279 26.1994 21.6557 25.9993 21.8335L23.9993 23.7335L21.966 21.8335C21.766 21.6557 21.5938 21.5279 21.4494 21.4502C21.3049 21.3724 21.1549 21.3335 20.9993 21.3335C20.7105 21.3335 20.4716 21.4335 20.2827 21.6335C20.0938 21.8335 19.9993 22.0668 19.9993 22.3335C19.9993 22.6446 20.1938 23.0168 20.5827 23.4502C20.9716 23.8835 21.7882 24.6335 23.0327 25.7002L23.9993 26.4668ZM9.33268 22.6668C9.06602 22.6668 8.82713 22.6057 8.61602 22.4835C8.4049 22.3613 8.24379 22.1779 8.13268 21.9335L5.83268 17.3335H2.66602V14.6668H6.66602C6.91046 14.6668 7.13824 14.7335 7.34935 14.8668C7.56046 15.0002 7.72157 15.1779 7.83268 15.4002L9.33268 18.3668L13.466 10.0668C13.5771 9.84461 13.7438 9.67794 13.966 9.56683C14.1882 9.45572 14.4216 9.40016 14.666 9.40016C14.9105 9.40016 15.1438 9.45572 15.366 9.56683C15.5882 9.67794 15.7549 9.84461 15.866 10.0668L18.1327 14.6668H22.666V17.3335H17.3327C17.066 17.3335 16.8271 17.2724 16.616 17.1502C16.4049 17.0279 16.2438 16.8446 16.1327 16.6002L14.666 13.6668L10.4993 21.9335C10.3882 22.1779 10.2271 22.3613 10.016 22.4835C9.8049 22.6057 9.57713 22.6668 9.33268 22.6668Z" fill="#1A1A1A"/>
</g>
</svg>
