<svg width="165" height="253" viewBox="0 0 165 253" fill="none" xmlns="http://www.w3.org/2000/svg">
<path d="M82.5061 210.472C81.5274 210.48 80.5569 210.292 79.6521 209.919C78.7473 209.546 77.9266 208.995 77.2383 208.299L45.0917 176.113C42.6352 173.642 39.7127 171.682 36.4936 170.349C33.2746 169.015 29.8228 168.333 26.3384 168.343H12.01C9.06672 168.339 6.24495 167.168 4.16371 165.087C2.08247 163.006 0.911688 160.184 0.908203 157.241V79.1724C0.932601 58.2234 9.26538 38.1394 24.0786 23.3262C38.8918 8.51294 58.9758 0.18016 79.9249 0.155762H85.0741C106.024 0.17668 126.11 8.50835 140.924 23.3223C155.738 38.1363 164.07 58.2223 164.091 79.1724V157.241C164.087 160.184 162.917 163.006 160.835 165.087C158.754 167.168 155.932 168.339 152.989 168.343H138.674C135.192 168.335 131.742 169.017 128.526 170.351C125.309 171.685 122.389 173.643 119.934 176.113L87.7344 208.299C87.0499 208.989 86.2353 209.536 85.3379 209.909C84.4405 210.282 83.4779 210.473 82.5061 210.472ZM79.8722 1.42004C59.2756 1.45486 39.5326 9.65224 24.9687 24.2162C10.4047 38.7802 2.20729 58.5232 2.17247 79.1198V157.188C2.17595 159.794 3.21171 162.292 5.05301 164.136C6.89432 165.98 9.39114 167.019 11.9969 167.026H26.3384C29.9872 167.014 33.6019 167.728 36.9727 169.125C40.3435 170.522 43.4031 172.575 45.974 175.165L78.1865 207.377C79.3346 208.523 80.8905 209.167 82.5127 209.167C84.1348 209.167 85.6907 208.523 86.8388 207.377L119.038 175.191C121.609 172.602 124.669 170.549 128.039 169.152C131.41 167.754 135.025 167.041 138.674 167.052H153.002C155.61 167.049 158.11 166.011 159.954 164.167C161.799 162.323 162.836 159.823 162.84 157.215V79.1724C162.805 58.5759 154.607 38.8329 140.043 24.2689C125.48 9.70491 105.737 1.50753 85.14 1.47271L79.8722 1.42004Z" fill="#179333"/>
<g style="mix-blend-mode:overlay" opacity="0.81">
<path d="M141.228 167.555V198.332C141.226 201.599 140.375 204.81 138.759 207.649C137.143 210.489 134.817 212.86 132.009 214.53L92.1321 238.235C89.2172 239.967 85.8893 240.881 82.4987 240.881C79.108 240.881 75.7801 239.967 72.8652 238.235L32.9881 214.53C30.18 212.86 27.8539 210.489 26.2379 207.649C24.6219 204.81 23.7713 201.599 23.7695 198.332V167.555H26.3376C33.5274 167.545 40.4277 170.386 45.5255 175.456L77.6984 207.695C78.9651 208.96 80.6821 209.671 82.4723 209.671C84.2625 209.671 85.9795 208.96 87.2463 207.695L119.446 175.496C124.542 170.423 131.443 167.581 138.633 167.594L141.228 167.555Z" fill="#179333"/>
</g>
<path d="M82.5053 252.893C78.9785 252.893 75.531 251.847 72.5986 249.888C69.6663 247.928 67.3808 245.143 66.0312 241.885C64.6816 238.627 64.3284 235.042 65.0165 231.583C65.7045 228.124 67.4028 224.946 69.8965 222.453C72.3903 219.959 75.5676 218.261 79.0265 217.573C82.4855 216.885 86.0708 217.238 89.3291 218.587C92.5873 219.937 95.3722 222.222 97.3315 225.155C99.2909 228.087 100.337 231.535 100.337 235.061C100.33 239.788 98.4488 244.32 95.1063 247.662C91.7638 251.005 87.2323 252.886 82.5053 252.893ZM82.5053 218.507C79.228 218.507 76.0244 219.479 73.2997 221.3C70.5749 223.121 68.4515 225.71 67.1979 228.738C65.9444 231.766 65.6171 235.097 66.2574 238.312C66.8977 241.526 68.4769 244.478 70.7952 246.794C73.1135 249.11 76.0667 250.687 79.2812 251.325C82.4958 251.963 85.8273 251.633 88.8544 250.377C91.8814 249.121 94.4679 246.995 96.2868 244.269C98.1056 241.543 99.075 238.339 99.0724 235.061C99.0654 230.671 97.3173 226.462 94.2115 223.359C91.1057 220.256 86.8958 218.511 82.5053 218.507Z" fill="#179333"/>
<path d="M94.5254 237.896C96.0925 231.256 91.9803 224.603 85.3404 223.036C78.7005 221.468 72.0473 225.581 70.4802 232.221C68.913 238.86 73.0253 245.514 79.6652 247.081C86.3051 248.648 92.9582 244.536 94.5254 237.896Z" fill="url(#paint0_linear_478_25917)"/>
<defs>
<linearGradient id="paint0_linear_478_25917" x1="73.7542" y1="226.324" x2="91.2301" y2="243.8" gradientUnits="userSpaceOnUse">
<stop stop-color="#198832"/>
<stop offset="0.31" stop-color="#179333"/>
<stop offset="0.62" stop-color="#169433"/>
<stop offset="0.85" stop-color="#13872D"/>
<stop offset="1" stop-color="#13892E"/>
</linearGradient>
</defs>
</svg>
