<svg width="33" height="32" viewBox="0 0 33 32" fill="none" xmlns="http://www.w3.org/2000/svg">
<mask id="mask0_459_1993" style="mask-type:alpha" maskUnits="userSpaceOnUse" x="0" y="0" width="33" height="32">
<rect x="0.5" width="32" height="32" fill="#D9D9D9"/>
</mask>
<g mask="url(#mask0_459_1993)">
<path d="M23.1673 12H25.834V9.33333H23.1673V12ZM23.1673 17.3333H25.834V14.6667H23.1673V17.3333ZM23.1673 22.6667H25.834V20H23.1673V22.6667ZM23.1673 28V25.3333H28.5007V6.66667H16.5007V8.53333L13.834 6.6V4H31.1673V28H23.1673ZM1.83398 28V14.6667L11.1673 8L20.5007 14.6667V28H12.5007V21.3333H9.83398V28H1.83398ZM4.50065 25.3333H7.16732V18.6667H15.1673V25.3333H17.834V16L11.1673 11.2667L4.50065 16V25.3333Z" fill="#1A1A1A"/>
</g>
</svg>
