<svg width="95" height="62" viewBox="0 0 95 62" fill="none" xmlns="http://www.w3.org/2000/svg">
<g opacity="0.1">
<path d="M51.541 37.7125C51.9836 23.2971 58.4259 12.9928 70.2344 5.90961C75.7601 2.59656 81.8228 0.821543 88.195 0.0186725C88.9664 -0.0780589 89.3316 0.197626 89.4476 0.925529C89.7451 2.78519 90.0449 4.64485 90.3569 6.50209C90.4972 7.33157 90.1199 7.70882 89.3557 8.00143C87.484 8.71724 85.5808 9.40404 83.8203 10.3447C79.4843 12.659 76.8121 16.3542 75.3539 20.9997C75.054 21.9549 75.2813 22.2814 76.2825 22.3685C85.9387 23.2294 93.8344 31.5289 94.2334 40.8853C94.7026 51.8715 86.6618 60.3694 77.3586 61.7357C65.156 63.5277 54.796 56.0697 52.2133 43.5357C51.7877 41.4681 51.7224 39.3255 51.5434 37.7125H51.541Z" fill="#039123"/>
<path d="M22.505 61.9652C12.145 61.9773 3.63027 55.4794 1.06931 45.059C-1.71414 33.7342 1.01127 23.4782 8.37253 14.5426C14.9986 6.4946 23.8326 2.21665 33.9749 0.422285C34.9229 0.255424 35.8781 0.061961 36.8333 0.0522879C37.2081 0.0474513 37.8611 0.463396 37.9191 0.772937C38.2698 2.66162 38.4632 4.57932 38.751 6.48009C38.8889 7.38453 38.4487 7.69407 37.6725 8.03505C35.2203 9.11118 32.6835 10.0954 30.437 11.5174C26.9425 13.7301 24.9088 17.1326 23.7238 21.0648C23.4457 21.9885 23.7044 22.2739 24.6234 22.3537C34.6375 23.2267 42.1535 31.2482 42.6348 41.2212C43.1886 52.6645 33.7016 62.2312 22.505 61.9652Z" fill="#039123"/>
</g>
</svg>
