<svg width="37" height="36" viewBox="0 0 37 36" fill="none" xmlns="http://www.w3.org/2000/svg">
<rect x="0.5" y="1" width="36" height="34" rx="17" stroke="#1A1A1A"/>
<path d="M17.92 12.7C19.16 12.7 20.22 12.8333 21.1 13.1C21.9933 13.3667 22.7333 13.7333 23.32 14.2C23.7467 14.5467 24.0933 14.9467 24.36 15.4C24.6267 15.84 24.82 16.36 24.94 16.96C25.0733 17.56 25.14 18.2667 25.14 19.08V24.18H11.12V19.04C11.12 18.2667 11.18 17.5867 11.3 17C11.4333 16.4 11.6267 15.8733 11.88 15.42C12.1467 14.9533 12.4867 14.5533 12.9 14.22C13.4733 13.74 14.1533 13.3667 14.94 13.1C15.74 12.8333 16.7333 12.7 17.92 12.7ZM16.44 14.82C16.04 14.82 15.68 14.9267 15.36 15.14C15.0533 15.3533 14.7933 15.6467 14.58 16.02C14.4067 16.3267 14.2733 16.7 14.18 17.14C14.1 17.5667 14.06 18.0933 14.06 18.72V22.82L13.34 22.78C14.14 22.1133 14.8667 21.4267 15.52 20.72C16.1733 20.0133 16.6933 19.2933 17.08 18.56C17.4667 17.8267 17.66 17.0867 17.66 16.34C17.66 16.06 17.6267 15.8067 17.56 15.58C17.4933 15.3533 17.3667 15.1733 17.18 15.04C17.0067 14.8933 16.76 14.82 16.44 14.82ZM20.56 16.78C20.56 17.42 20.4267 18.0467 20.16 18.66C19.9067 19.2733 19.5467 19.88 19.08 20.48C18.6267 21.08 18.0933 21.6867 17.48 22.3L16.96 22.18C17.2933 22.14 17.6333 22.1133 17.98 22.1C18.34 22.0867 18.6067 22.08 18.78 22.08H22.2V19.1C22.2 18.2467 22.12 17.5467 21.96 17C21.8 16.44 21.54 15.98 21.18 15.62C20.8333 15.2467 20.36 14.9333 19.76 14.68L19.84 14.6C20 14.8133 20.16 15.1 20.32 15.46C20.48 15.8067 20.56 16.2467 20.56 16.78Z" fill="#1A1A1A"/>
</svg>
