<svg width="59" height="91" viewBox="0 0 59 91" fill="none" xmlns="http://www.w3.org/2000/svg">
<path d="M34.3521 6.28869C32.5159 8.106 30.9023 10.1352 29.5452 12.3335C28.1882 10.1352 26.5746 8.106 24.7384 6.28869C16.5997 -1.85002 1.12558 0.415134 1.12558 0.415134C1.12558 0.415134 -1.13956 15.8892 6.99915 24.0279C12.9122 29.9278 20.0896 32.9305 25.4364 32.272C22.4501 30.0819 19.936 27.3123 18.0444 24.1286C16.1527 20.9449 14.9223 17.4126 14.4267 13.7426C18.7358 14.888 22.8253 16.7392 26.5294 19.2211L28.8604 20.9594V27.8207L21.367 20.1166C21.3091 20.0569 21.24 20.0093 21.1636 19.9763C21.0872 19.9434 21.0051 19.9258 20.922 19.9245C20.8388 19.9233 20.7562 19.9385 20.6789 19.9692C20.6017 19.9999 20.5312 20.0455 20.4715 20.1034C20.4118 20.1614 20.3642 20.2305 20.3312 20.3069C20.2982 20.3832 20.2807 20.4653 20.2794 20.5485C20.2782 20.6316 20.2934 20.7142 20.3241 20.7915C20.3548 20.8688 20.4004 20.9393 20.4583 20.9989L28.8078 29.5854V90.876H30.1247V29.3615L38.2371 20.9989C38.296 20.9402 38.3428 20.8704 38.3747 20.7936C38.4066 20.7168 38.423 20.6344 38.423 20.5512C38.423 20.468 38.4066 20.3856 38.3747 20.3088C38.3428 20.232 38.296 20.1622 38.2371 20.1034C38.1168 19.9875 37.9563 19.9228 37.7893 19.9228C37.6223 19.9228 37.4618 19.9875 37.3415 20.1034L30.1379 27.531V20.9463L32.6006 19.2869C36.3033 16.8027 40.3933 14.9513 44.7033 13.8084C42.9855 20.2602 39.6702 26.1753 35.0632 31.0077L33.7463 32.3247C39.1194 32.9831 46.2968 29.9805 52.1835 24.0806C60.3222 15.9419 58.0571 0.467783 58.0571 0.467783C58.0571 0.467783 42.4908 -1.78417 34.3521 6.28869Z" fill="#C8F0D1"/>
</svg>
