<svg width="31" height="30" viewBox="0 0 31 30" fill="none" xmlns="http://www.w3.org/2000/svg">
<path d="M15.9103 26.25C18.513 26.25 21.0352 25.3475 23.0472 23.6963C25.0591 22.0451 26.4363 19.7474 26.944 17.1947C27.4518 14.6419 27.0587 11.9921 25.8318 9.69671C24.6048 7.40131 22.6199 5.60234 20.2153 4.60633C17.8107 3.61032 15.1351 3.47889 12.6444 4.23445C10.1537 4.99 8.00209 6.58579 6.5561 8.7499C5.11011 10.914 4.45922 13.5126 4.71435 16.1028C4.96948 18.693 6.11484 21.1146 7.95527 22.955" stroke="#01295A" stroke-width="2" stroke-linecap="round"/>
<path d="M20.9102 12.5L16.4127 17.8975C15.5939 18.88 15.1839 19.3725 14.6327 19.3975C14.0814 19.4225 13.6289 18.9688 12.7239 18.0638L10.9102 16.25" stroke="#01295A" stroke-width="2" stroke-linecap="round"/>
</svg>
