<svg width="17" height="17" viewBox="0 0 17 17" fill="none" xmlns="http://www.w3.org/2000/svg">
<path d="M4.14849 16.3603H0.756572V5.43737H4.14849V16.3603ZM2.45071 3.94738C1.36608 3.94738 0.486328 3.049 0.486328 1.96438C0.486328 1.44339 0.693289 0.943745 1.06168 0.575353C1.43007 0.206961 1.92972 0 2.45071 0C2.97169 0 3.47134 0.206961 3.83973 0.575353C4.20812 0.943745 4.41508 1.44339 4.41508 1.96438C4.41508 3.049 3.53497 3.94738 2.45071 3.94738ZM16.8434 16.3603H13.4587V11.0431C13.4587 9.77588 13.4332 8.15076 11.6952 8.15076C9.9317 8.15076 9.66146 9.52754 9.66146 10.9518V16.3603H6.27319V5.43737H9.52634V6.92736H9.57381C10.0267 6.06916 11.1328 5.16348 12.7831 5.16348C16.216 5.16348 16.847 7.42403 16.847 10.3602V16.3603H16.8434Z" fill="#039123"/>
</svg>
