<svg width="151" height="38" viewBox="0 0 151 38" fill="none" xmlns="http://www.w3.org/2000/svg">
<g clip-path="url(#clip0_1446_1254)">
<path d="M129.967 0.95166C122.175 0.95166 115.758 7.25418 115.758 15.161C115.758 22.9532 122.06 29.3703 129.967 29.3703C137.759 29.3703 144.176 23.0678 144.176 15.161C144.176 7.25418 137.759 0.95166 129.967 0.95166ZM140.968 7.25418C140.28 7.71255 139.478 8.17091 138.676 8.62928C138.218 7.71255 137.645 6.79582 136.957 5.99368C137.53 5.6499 138.103 5.19154 138.561 4.84776C139.593 5.42072 140.395 6.33745 140.968 7.25418ZM135.009 2.55594C136.155 3.0143 137.186 3.58726 138.218 4.3894C137.759 4.84776 137.186 5.19154 136.613 5.53531C135.926 4.73317 135.124 4.04563 134.322 3.35808C134.551 3.0143 134.78 2.78512 135.009 2.55594ZM136.155 5.76449C135.353 6.22286 134.551 6.45204 133.749 6.79582C133.405 5.99368 133.061 5.19154 132.603 4.50399C133.061 4.27481 133.519 4.04563 133.863 3.70185C134.665 4.27481 135.468 4.96236 136.155 5.76449ZM134.436 2.32676C134.207 2.55594 133.978 2.78512 133.863 3.0143C133.061 2.55594 132.374 2.09757 131.457 1.7538C132.488 1.7538 133.519 1.98298 134.436 2.32676ZM133.405 3.35808C133.061 3.58726 132.717 3.81644 132.374 3.93103C131.915 3.24349 131.457 2.67053 130.998 1.98298C131.801 2.32676 132.603 2.78512 133.405 3.35808ZM130.196 2.09757C130.769 2.67053 131.228 3.35808 131.686 4.16022C131.228 4.27481 130.769 4.3894 130.196 4.3894V2.09757ZM130.196 4.96236C130.769 4.96236 131.457 4.84776 132.03 4.61858C132.488 5.30613 132.832 6.10827 133.176 6.91041C132.259 7.13959 131.228 7.25418 130.196 7.36877V4.96236ZM129.623 2.09757V4.3894C129.165 4.3894 128.707 4.27481 128.134 4.16022C128.707 3.47267 129.165 2.78512 129.623 2.09757ZM127.675 3.93103C127.332 3.81644 126.873 3.58726 126.644 3.35808C127.446 2.89971 128.248 2.44135 129.05 2.09757C128.477 2.67053 128.019 3.24349 127.675 3.93103ZM128.477 1.63921C127.675 1.98298 126.873 2.44135 126.071 2.89971C125.842 2.67053 125.613 2.44135 125.498 2.21216C126.415 1.98298 127.446 1.7538 128.477 1.63921ZM138.218 25.9326C136.384 24.9012 136.27 23.4116 136.384 22.9532C136.499 22.3802 136.843 22.6094 137.072 22.6094C138.332 22.6094 139.593 22.2656 141.197 20.5468C143.031 18.7133 143.603 14.588 140.739 11.9524C137.759 9.08764 134.551 9.54601 132.488 12.1816C132.03 12.7546 130.998 13.0983 130.196 13.0983C128.821 13.0983 129.738 14.1297 129.738 14.3588C129.738 14.588 129.509 14.7026 129.394 14.7026C128.936 14.588 129.165 15.2756 129.165 15.3902C129.165 15.5048 128.936 15.7339 128.936 15.7339C128.363 15.7339 128.477 16.1923 128.592 16.4215C128.592 16.5361 128.592 16.7653 128.363 16.8799C128.134 16.9944 128.019 17.4528 128.019 17.7966C128.019 18.3695 128.592 18.8279 129.509 19.5155C130.425 20.203 130.54 20.8905 130.54 21.3489C130.54 21.8073 130.655 22.6094 130.769 23.0678C130.998 23.6407 130.998 24.7866 129.738 24.7866C128.134 24.9012 125.383 26.0472 125.154 26.1617C124.238 26.5055 123.092 26.6201 122.175 26.3909C121.717 26.0472 121.258 25.7034 120.8 25.245C120.571 24.6721 120.914 23.9845 121.258 23.5261C121.831 24.0991 122.519 23.9845 122.977 23.9845C123.435 23.9845 125.498 23.6407 125.842 23.5261C126.186 23.4116 126.3 23.4116 126.415 23.5261C127.217 23.8699 128.363 23.8699 128.821 22.3802C129.28 20.776 128.248 21.2343 128.019 21.3489C127.904 21.4635 127.675 21.3489 127.79 21.2343C128.019 20.8905 127.675 20.8905 127.561 20.8905C127.102 20.8905 126.529 21.3489 126.415 21.4635C126.186 21.5781 126.071 21.5781 125.956 21.5781C125.383 21.2343 123.665 21.6927 123.092 20.776C123.092 20.5468 122.633 16.7653 122.404 16.0777C122.404 15.9631 122.29 15.7339 122.519 15.5048C122.977 14.8172 124.123 15.5048 124.811 15.5048C125.613 15.5048 125.727 15.161 125.956 14.9318C126.186 14.7026 126.3 14.8172 126.415 14.7026C126.529 14.588 126.415 14.4734 126.415 14.3588C126.415 14.2443 126.529 14.3588 126.644 14.2443C126.759 14.1297 126.644 13.9005 126.644 13.7859C126.873 13.4421 127.332 13.6713 127.102 12.9837C126.988 12.5254 127.217 12.067 127.446 11.8378C127.79 11.3795 129.28 9.31682 126.759 7.13959C124.352 5.07695 121.831 5.30613 120.227 7.025C118.623 8.74387 119.425 11.2649 119.539 11.9524C119.654 12.64 119.196 13.2129 118.623 13.4421C118.164 13.6713 117.133 14.3588 116.445 14.9318C116.56 9.43142 119.883 4.61858 124.925 2.67053C125.154 2.89971 125.383 3.24349 125.613 3.47267C125.04 3.93103 123.779 4.96236 123.779 4.96236C123.779 4.96236 123.894 4.96236 124.123 5.07695C124.238 5.07695 124.467 5.19154 124.467 5.19154C124.467 5.19154 125.498 4.27481 126.071 3.93103C126.415 4.27481 126.873 4.50399 127.332 4.73317C127.102 5.19154 126.415 6.33745 126.415 6.33745C126.415 6.33745 126.529 6.45204 126.644 6.45204C126.759 6.56663 126.873 6.56663 126.873 6.56663C126.873 6.56663 127.561 5.30613 127.79 4.84776C128.363 5.07695 128.936 5.19154 129.509 5.19154V7.48336C129.165 7.48336 128.363 7.48336 128.019 7.36877H127.79L127.904 7.59796C128.019 7.71255 128.019 7.82714 128.134 7.94173C128.363 7.94173 129.165 7.94173 129.509 7.94173V12.1816H130.082V11.1503C130.998 11.1503 131.686 11.0357 132.488 10.9211L133.29 10.2336H132.832C131.915 10.3481 131.113 10.4627 130.425 10.4627C130.425 10.4627 130.196 10.4627 130.082 10.4627V7.82714C131.113 7.82714 132.259 7.71255 133.29 7.36877C133.519 8.05632 134.092 9.77519 134.092 9.77519L134.665 9.54601C134.665 9.54601 134.092 7.82714 133.863 7.13959C134.78 6.91041 135.582 6.45204 136.384 6.10827C137.072 6.91041 137.645 7.82714 138.103 8.74387C137.645 8.97305 136.957 9.20223 136.957 9.20223C137.53 9.31682 137.989 9.43142 137.989 9.43142C137.989 9.43142 138.218 9.31682 138.332 9.31682C138.332 9.43142 138.447 9.6606 138.447 9.6606L139.249 10.0044L139.134 9.77519C139.134 9.77519 138.905 9.20223 138.791 9.08764C139.593 8.74387 140.395 8.2855 141.197 7.71255C142.687 9.88978 143.374 12.5254 143.374 15.161C143.603 19.5154 141.426 23.4116 138.218 25.9326Z" fill="#009EDB"/>
<path d="M114.5 4.73324L114.271 4.96243C113.469 5.64997 111.521 7.59803 111.864 9.77526V9.88985L111.979 10.3482L112.208 10.119C113.354 9.08771 114.271 7.25425 114.615 5.19161L114.729 4.61865L114.5 4.73324Z" fill="#009EDB"/>
<path d="M110.604 8.40024L110.489 8.62942C110.374 8.97319 110.145 9.77533 110.031 10.6921C109.801 12.0672 109.916 14.1298 111.062 15.6195L111.176 15.8487L111.291 16.0779L111.52 15.1611C111.749 13.5568 111.406 10.2337 110.833 8.74401L110.604 8.28564V8.40024Z" fill="#009EDB"/>
<path d="M109.227 14.1294V14.3586C109.112 15.7337 109.227 19.286 112.092 21.2341L112.436 21.4633V21.0049C112.436 19.6298 110.831 15.6191 109.685 14.244L109.342 13.7856L109.227 14.1294Z" fill="#009EDB"/>
<path d="M109.688 20.4323V20.6615C110.146 22.7241 111.979 25.9327 114.959 26.964L115.417 27.0786L115.302 26.6202C114.73 25.1306 111.865 21.5782 110.031 20.4323L109.688 20.2031V20.4323Z" fill="#009EDB"/>
<path d="M115.759 7.82699L115.416 7.94158C113.238 9.31668 112.207 10.921 112.207 12.9836V13.442L112.551 13.2128C113.697 12.1815 115.301 9.66045 115.645 8.28536L115.759 7.7124V7.82699Z" fill="#009EDB"/>
<path d="M114.384 12.1815L114.27 12.4107C113.697 12.9836 111.863 14.9317 111.978 17.3381C111.978 17.6819 112.092 18.1402 112.207 18.484L112.322 18.8278L112.551 18.484C113.467 17.2235 114.613 14.0149 114.499 12.5253V12.0669L114.384 12.1815Z" fill="#009EDB"/>
<path d="M114.497 16.4217L114.383 16.6509C113.466 18.026 113.008 19.4011 113.008 20.7762C113.008 21.6929 113.352 22.6097 113.925 23.5264L114.154 23.8702L114.268 23.5264C114.612 22.7242 114.956 20.3178 114.956 18.3698C114.956 17.6822 114.841 17.1093 114.727 16.7655L114.612 16.3071L114.497 16.4217Z" fill="#009EDB"/>
<path d="M115.532 20.8903L115.417 21.1195C115.188 22.0362 114.959 22.8384 115.073 23.7551C115.073 25.5886 115.99 27.0782 117.594 28.1096L117.824 28.2242L117.938 27.8804V27.5366C117.938 26.0469 116.792 22.1508 115.876 21.0049L115.646 20.6611L115.532 20.8903Z" fill="#009EDB"/>
<path d="M112.435 26.8495L112.549 27.0786C113.695 29.0267 115.758 31.6623 119.54 30.9747H119.883L119.654 30.7456C118.967 29.7142 114.383 27.0786 112.779 26.8495L112.32 26.7349L112.435 26.8495Z" fill="#009EDB"/>
<path d="M118.05 31.8913L117.477 32.0059L118.05 32.235C120.456 33.2664 123.435 33.4955 125.269 32.9226C125.956 32.6934 126.3 32.3496 126.758 31.8913C129.852 32.235 132.717 34.756 134.436 36.8187L134.551 36.9333H134.665C134.894 36.8187 135.124 36.5895 135.238 36.4749L135.353 36.3603L135.238 36.2457C133.519 33.9539 130.769 32.5788 130.655 32.4642C128.134 31.3183 123.779 30.4016 118.05 31.8913Z" fill="#009EDB"/>
<path d="M118.165 25.474V25.7032C118.509 27.995 119.426 30.9743 123.322 30.6306H123.551L123.437 30.4014C123.207 29.3701 119.655 26.3907 118.395 25.5886L118.051 25.3594L118.165 25.474Z" fill="#009EDB"/>
<path d="M145.211 4.50391L145.326 5.07686C145.669 7.13951 146.586 8.97297 147.732 10.0043L147.961 10.2335L148.076 9.77511V9.66051C148.419 7.48328 146.471 5.53523 145.669 4.84768L145.44 4.6185L145.211 4.50391Z" fill="#009EDB"/>
<path d="M149.219 8.1709L148.99 8.62926C148.417 10.119 148.187 13.4421 148.302 15.0464L148.531 15.9631L148.646 15.8485L148.76 15.6193C150.021 14.1296 150.021 12.1816 149.792 10.6919C149.677 9.66059 149.448 8.97304 149.333 8.62926L149.219 8.40008V8.1709Z" fill="#009EDB"/>
<path d="M150.711 13.9004L150.367 14.3588C149.221 15.8484 147.617 19.7445 147.617 21.1196V21.578L147.961 21.3488C150.826 19.5154 150.94 15.963 150.826 14.4733V14.2442L150.711 13.9004Z" fill="#009EDB"/>
<path d="M150.25 20.2031L149.792 20.4323C147.959 21.5782 145.094 25.1306 144.521 26.6202L144.406 27.0786L144.865 26.964C147.844 26.0473 149.792 22.7241 150.136 20.6615V20.4323L150.25 20.2031Z" fill="#009EDB"/>
<path d="M144.18 7.59814L144.294 8.1711C144.753 9.66079 146.128 12.1818 147.388 13.2131L147.732 13.4423V12.9839C147.847 10.9213 146.815 9.31701 144.638 7.94192L144.409 7.82733L144.18 7.59814Z" fill="#009EDB"/>
<path d="M145.437 12.0669V12.5253C145.322 14.0149 146.583 17.3381 147.385 18.484L147.614 18.8278L147.729 18.484C147.843 18.0256 147.958 17.6819 147.958 17.3381C148.073 14.9317 146.239 12.9836 145.666 12.4107L145.552 12.2961L145.437 12.0669Z" fill="#009EDB"/>
<path d="M145.324 16.1924L145.21 16.6507C145.095 16.9945 144.98 17.5675 144.98 18.255C144.98 20.2031 145.21 22.6095 145.668 23.4116L145.783 23.7554L146.012 23.4116C146.585 22.6095 146.929 21.6928 146.929 20.6614C146.929 19.4009 146.47 17.9113 145.553 16.5362L145.439 16.307L145.324 16.1924Z" fill="#009EDB"/>
<path d="M144.292 20.6611L144.063 21.0049C143.146 22.1508 142 26.0469 142 27.5366C142 27.5366 142 27.7658 142 27.8804L142.115 28.2242L142.344 28.1096C143.948 27.0782 144.75 25.5886 144.865 23.7551C144.865 22.953 144.75 22.0362 144.521 21.1195L144.406 20.8903L144.292 20.6611Z" fill="#009EDB"/>
<path d="M147.614 26.6201L147.155 26.7347C145.551 26.9639 140.968 29.5995 140.28 30.6308L140.051 30.86H140.395C144.176 31.5475 146.239 28.9119 147.385 26.9639L147.499 26.7347L147.614 26.6201Z" fill="#009EDB"/>
<path d="M129.397 32.4642C129.283 32.4642 126.533 33.9539 124.814 36.2457L124.699 36.3603L124.814 36.4749C124.928 36.5895 125.272 36.8187 125.387 36.9333H125.501L125.616 36.8187C127.335 34.756 130.2 32.1204 133.294 31.8913C133.752 32.3496 134.21 32.6934 134.783 32.9226C136.502 33.4955 139.596 33.2664 142.003 32.235L142.575 32.0059L142.003 31.8913C136.158 30.4016 131.804 31.3183 129.397 32.4642Z" fill="#009EDB"/>
<path d="M141.77 25.2451L141.426 25.4743C140.166 26.2764 136.728 29.2558 136.384 30.2871L136.27 30.5163H136.499C140.28 30.8601 141.197 27.8807 141.655 25.5889V25.3597L141.77 25.2451Z" fill="#009EDB"/>
<path d="M45.0547 2.32666H49.8675V6.68113H45.0547V2.32666ZM45.5131 11.7231H49.5237V33.0371H45.5131V11.7231Z" fill="#009EDB"/>
<path d="M15.1481 11.7231H19.1588V33.0371H15.2627V29.9432H15.1481C13.5439 32.5788 10.7937 33.7247 7.81429 33.7247C3.34523 33.7247 0.824219 30.2869 0.824219 26.0471V11.7231H4.83491V24.3282C4.83491 27.9951 5.63705 30.7453 9.53316 30.7453C11.1374 30.7453 13.4293 29.9432 14.2314 27.6513C15.0335 25.7033 15.0335 23.1823 15.0335 22.6093V11.7231H15.1481Z" fill="#009EDB"/>
<path d="M27.1787 14.8172C28.6684 12.1816 31.5331 11.0356 33.7104 11.0356C35.2001 11.0356 41.7318 11.3794 41.7318 18.2549V32.9226H37.7211V19.5154C37.7211 15.9631 36.2314 14.1296 32.7936 14.1296C32.7936 14.1296 30.6164 14.015 28.8975 15.7339C28.3246 16.3068 27.1787 17.2236 27.1787 21.4635V33.0372H23.168V11.7232H27.1787V14.8172Z" fill="#009EDB"/>
<path d="M66.3708 18.4841C66.1416 15.8485 64.8811 14.015 62.0163 14.015C58.2348 14.015 56.7451 17.3382 56.7451 22.2656C56.7451 27.193 58.2348 30.5162 62.0163 30.5162C64.6519 30.5162 66.2562 28.7973 66.4854 25.7033H70.496C70.1523 30.5162 66.5999 33.3809 61.9017 33.3809C55.1408 33.3809 52.3906 28.5681 52.3906 22.3802C52.3906 16.1923 55.4846 11.0356 62.2455 11.0356C66.7145 11.0356 70.0377 13.9004 70.2669 18.4841H66.3708Z" fill="#009EDB"/>
<path d="M76.4547 23.0679C76.1109 26.7348 77.7152 30.6309 81.7259 30.6309C84.8199 30.6309 86.4242 29.3704 86.8825 26.2764H91.1224C90.4349 31.0893 86.7679 33.4957 81.7259 33.4957C74.965 33.4957 72.2148 28.6829 72.2148 22.4949C72.2148 16.307 75.3088 11.1504 82.0697 11.1504C88.3722 11.265 91.3516 15.2757 91.3516 21.1198V23.0679H76.4547ZM87.2263 20.3177C87.3409 16.7654 85.7366 14.0152 81.8405 14.0152C78.5174 14.0152 76.5693 16.88 76.5693 20.3177H87.2263Z" fill="#009EDB"/>
<path d="M95.9364 32.808V14.4734H92.2695V11.7232H95.9364V7.13957C96.051 2.55591 99.6034 1.29541 102.583 1.29541C103.499 1.29541 104.531 1.52459 105.448 1.75378V5.07692C104.76 5.07692 104.072 4.96233 103.385 4.96233C101.093 4.96233 99.8326 5.53529 99.9471 7.82711V11.7232H104.875V14.4734H99.9471V32.808H95.9364Z" fill="#009EDB"/>
</g>
<defs>
<clipPath id="clip0_1446_1254">
<rect width="150" height="36.0963" fill="white" transform="translate(0.824219 0.95166)"/>
</clipPath>
</defs>
</svg>
