<svg width="339" height="338" viewBox="0 0 339 338" fill="none" xmlns="http://www.w3.org/2000/svg">
<g opacity="0.6">
<circle cx="36.0391" cy="137.62" r="30.2461" fill="#C3EBCF"/>
<circle cx="106.36" cy="52.9306" r="6.80537" fill="#C3EBCF"/>
<circle cx="308.634" cy="72.9688" r="10.2081" fill="#C3EBCF"/>
<path d="M203.334 49.6721C202.77 49.5522 202.77 48.7478 203.334 48.6279L211.856 46.8157C212.061 46.772 212.222 46.612 212.267 46.4067L214.101 37.9448C214.223 37.384 215.023 37.384 215.145 37.9448L216.98 46.4067C217.024 46.612 217.185 46.772 217.39 46.8157L225.912 48.6279C226.476 48.7478 226.476 49.5522 225.912 49.6721L217.39 51.4843C217.185 51.528 217.024 51.688 216.98 51.8933L215.145 60.3552C215.023 60.916 214.223 60.916 214.101 60.3552L212.267 51.8933C212.222 51.688 212.061 51.528 211.856 51.4843L203.334 49.6721Z" fill="#C3EBCF"/>
<path d="M28.2576 192.14C28.4268 191.341 29.5679 191.341 29.7371 192.14L32.2648 204.082C32.3264 204.373 32.5529 204.601 32.8436 204.664L44.6619 207.239C45.4555 207.412 45.4555 208.544 44.6619 208.716L32.8436 211.291C32.5529 211.354 32.3264 211.582 32.2648 211.873L29.7371 223.815C29.5679 224.614 28.4268 224.614 28.2576 223.815L25.7299 211.873C25.6683 211.582 25.4418 211.354 25.1511 211.291L13.3328 208.716C12.5392 208.544 12.5392 207.412 13.3328 207.239L25.1511 204.664C25.4418 204.601 25.6683 204.373 25.7299 204.082L28.2576 192.14Z" fill="#C3EBCF"/>
<path d="M219.543 296.376C219.712 295.576 220.853 295.576 221.022 296.376L222.497 303.342C222.558 303.633 222.785 303.861 223.076 303.924L229.99 305.431C230.783 305.604 230.783 306.735 229.99 306.908L223.076 308.415C222.785 308.478 222.558 308.706 222.497 308.997L221.022 315.963C220.853 316.763 219.712 316.763 219.543 315.963L218.068 308.997C218.006 308.706 217.78 308.478 217.489 308.415L210.575 306.908C209.781 306.735 209.781 305.604 210.575 305.431L217.489 303.924C217.78 303.861 218.006 303.633 218.068 303.342L219.543 296.376Z" fill="#C3EBCF"/>
<path d="M218.507 65.9182C218.507 65.9182 182.354 111.712 124.51 84.3963C66.6647 57.0806 8.81977 130.994 58.6307 175.984C108.442 220.974 59.6979 245.696 93.5374 273.269C131.998 304.608 165.483 241.059 196.012 255.521C263.392 287.437 313.309 274.802 302.061 237.846C282.317 172.974 257.071 168.753 276.352 135.011C295.634 101.268 253.079 31.1081 218.507 65.9182Z" fill="#CCF4D9"/>
<path d="M198.829 192.572L195.973 207.906L182.369 280.799L157.863 276.224L173.576 192.019L174.323 188.006L198.829 192.572Z" fill="#179333"/>
<path d="M259.182 155.901L250.732 201.203C250.708 201.336 250.657 201.462 250.583 201.576C250.51 201.689 250.414 201.786 250.303 201.863C250.191 201.939 250.066 201.993 249.934 202.021C249.802 202.049 249.665 202.05 249.533 202.025L130.816 179.884L144.789 104.966L234.938 121.78C251.277 124.826 262.13 140.1 259.182 155.901Z" fill="#A9DDBA"/>
<path d="M170.144 140.698L161.76 185.648L99.4453 174.026L107.829 129.076C110.916 112.525 127.368 101.71 144.576 104.92C161.783 108.129 173.231 124.147 170.144 140.698Z" fill="#6DD284"/>
<path d="M199.151 161.711C194.559 160.854 191.529 156.391 192.393 151.757C193.258 147.122 197.693 144.05 202.285 144.907C203.749 145.182 205.113 145.84 206.241 146.814C207.368 147.787 208.217 149.042 208.702 150.451L266.707 161.269L265.14 169.671L207.135 158.853C206.175 159.992 204.93 160.856 203.528 161.358C202.126 161.86 200.615 161.982 199.151 161.711Z" fill="#179333"/>
<path d="M168.078 141.524L159.91 185.319L101.207 174.371L109.376 130.575C112.383 114.451 127.963 103.829 144.173 106.853C160.383 109.876 171.086 125.399 168.078 141.524Z" fill="#179333"/>
<path d="M200.797 157.466C203.157 157.466 205.07 155.553 205.07 153.193C205.07 150.833 203.157 148.919 200.797 148.919C198.437 148.919 196.523 150.833 196.523 153.193C196.523 155.553 198.437 157.466 200.797 157.466Z" fill="white"/>
<path d="M267.378 161.239L262.254 188.712C262.232 188.83 262.164 188.935 262.065 189.003C261.965 189.071 261.843 189.096 261.725 189.074L248.256 186.562C248.232 186.558 248.212 186.544 248.198 186.525C248.185 186.505 248.18 186.481 248.184 186.458L253.375 158.627C253.379 158.604 253.393 158.583 253.412 158.57C253.432 158.557 253.456 158.551 253.479 158.556L267.306 161.135C267.33 161.139 267.351 161.153 267.364 161.172C267.377 161.192 267.382 161.216 267.378 161.239Z" fill="#179333"/>
<path d="M120.633 158.654C121.2 162.827 125.779 167.786 125.779 167.786C118.802 168.281 115.024 164.335 113.398 161.938C111.388 162.519 109.322 162.885 107.235 163.032C92.9119 164.047 80.582 154.696 79.6916 142.135C78.8011 129.574 89.6889 118.577 104.012 117.562C118.335 116.547 130.664 125.898 131.554 138.459C132.133 146.629 127.725 154.139 120.633 158.654Z" fill="white"/>
<path d="M161.822 185.676C161.173 187.318 149.312 236.226 110.929 229.067C68.84 221.941 99.2842 174.012 99.2842 174.012L161.822 185.676Z" fill="#A9DDBA"/>
<path d="M105.624 144.606C107.59 144.606 109.185 143.012 109.185 141.045C109.185 139.078 107.59 137.484 105.624 137.484C103.657 137.484 102.062 139.078 102.062 141.045C102.062 143.012 103.657 144.606 105.624 144.606Z" fill="#179333"/>
<path d="M89.6764 143.053C91.655 143.053 93.259 141.449 93.259 139.471C93.259 137.492 91.655 135.888 89.6764 135.888C87.6978 135.888 86.0938 137.492 86.0938 139.471C86.0938 141.449 87.6978 143.053 89.6764 143.053Z" fill="#179333"/>
<path d="M121.411 146.124C123.389 146.124 124.993 144.52 124.993 142.541C124.993 140.562 123.389 138.958 121.411 138.958C119.432 138.958 117.828 140.562 117.828 142.541C117.828 144.52 119.432 146.124 121.411 146.124Z" fill="#179333"/>
<path d="M198.827 192.572L195.971 207.906L173.574 192.019L174.321 188.006L198.827 192.572Z" fill="#85C894"/>
</g>
</svg>
