<svg width="22" height="28" viewBox="0 0 22 28" fill="none" xmlns="http://www.w3.org/2000/svg">
<path d="M0.908203 26.6556H5.9082M20.9082 26.6556H10.9082M18.8295 9.29436L19.757 8.36936C20.1222 8.00421 20.4119 7.57069 20.6096 7.09356C20.8073 6.61642 20.9091 6.10502 20.9092 5.58856C20.9092 5.07209 20.8076 4.56067 20.61 4.08349C20.4124 3.60631 20.1227 3.17273 19.7576 2.80749C19.3924 2.44225 18.9589 2.15251 18.4818 1.95481C18.0046 1.75711 17.4932 1.65533 16.9768 1.65527C16.4603 1.65522 15.9489 1.75688 15.4717 1.95447C14.9945 2.15206 14.5609 2.44171 14.1957 2.80686L13.2682 3.73436C13.2682 3.73436 13.3845 5.70436 15.122 7.44186C16.8595 9.17936 18.8295 9.29562 18.8295 9.29562L14.5707 13.5556M13.2682 3.73311L4.74695 12.2556C4.16945 12.8331 3.8807 13.1206 3.6332 13.4394C3.34001 13.8145 3.08892 14.2207 2.88445 14.6506C2.7107 15.0144 2.58195 15.4019 2.3232 16.1756L1.22945 19.4581L0.963203 20.2606C0.900791 20.4474 0.891669 20.648 0.93686 20.8397C0.982052 21.0314 1.07977 21.2067 1.21905 21.346C1.35833 21.4853 1.53367 21.583 1.72539 21.6282C1.91711 21.6734 2.11763 21.6643 2.30445 21.6019L3.1057 21.3356M10.3082 17.8181C9.7307 18.3956 9.4432 18.6831 9.12445 18.9319C8.74862 19.2252 8.34487 19.4748 7.9132 19.6806C7.54945 19.8544 7.16195 19.9831 6.3882 20.2406L3.1057 21.3356M3.1057 21.3356L1.2307 19.4594" stroke="#01295A" stroke-width="1.5" stroke-linecap="round"/>
</svg>
