<svg width="14" height="14" viewBox="0 0 14 14" fill="none" xmlns="http://www.w3.org/2000/svg">
<mask id="mask0_459_5288" style="mask-type:alpha" maskUnits="userSpaceOnUse" x="0" y="0" width="14" height="14">
<rect width="14" height="14" fill="#D9D9D9"/>
</mask>
<g mask="url(#mask0_459_5288)">
<path d="M4.08268 13.4163C3.76185 13.4163 3.4872 13.3021 3.25872 13.0736C3.03025 12.8452 2.91602 12.5705 2.91602 12.2497V1.74967C2.91602 1.42884 3.03025 1.15419 3.25872 0.925716C3.4872 0.697244 3.76185 0.583008 4.08268 0.583008H9.91601C10.2368 0.583008 10.5115 0.697244 10.74 0.925716C10.9684 1.15419 11.0827 1.42884 11.0827 1.74967V4.08301H9.91601V3.49967H4.08268V10.4997H9.91601V9.91634H11.0827V12.2497C11.0827 12.5705 10.9684 12.8452 10.74 13.0736C10.5115 13.3021 10.2368 13.4163 9.91601 13.4163H4.08268ZM4.08268 11.6663V12.2497H9.91601V11.6663H4.08268ZM4.08268 2.33301H9.91601V1.74967H4.08268V2.33301ZM10.0035 7.58301H6.99935V9.33301H5.83268V7.58301C5.83268 7.26218 5.94692 6.98752 6.17539 6.75905C6.40386 6.53058 6.67852 6.41634 6.99935 6.41634H10.0035L9.09935 5.48301L9.91601 4.66634L12.2493 6.99967L9.91601 9.33301L9.09935 8.51634L10.0035 7.58301Z" fill="#01295A"/>
</g>
</svg>
