<svg width="46" height="79" viewBox="0 0 46 79" fill="none" xmlns="http://www.w3.org/2000/svg">
<g clip-path="url(#clip0_459_1918)">
<path d="M45.1422 8.28703V70.7105C45.084 70.8392 44.9976 70.9627 44.9694 71.0967C44.1758 75.1159 41.7879 77.6413 37.8463 78.7189C37.5148 78.8088 37.185 78.9058 36.8534 78.9993H8.28703C8.12655 78.9411 7.96959 78.8617 7.80382 78.8282C4.12676 78.084 1.68245 75.9289 0.453239 72.3947C0.262773 71.8463 0.149904 71.2713 0 70.7105C0 49.9021 0 29.0954 0 8.28703C0.0581979 8.12302 0.134032 7.9643 0.169303 7.79676C0.999947 3.7811 3.44073 1.30152 7.36821 0.239846C7.67507 0.156958 7.98194 0.0793608 8.28703 0C17.8086 0 27.3319 0 36.8534 0C37.0121 0.0617251 37.1673 0.146377 37.3313 0.179885C41.0154 0.918822 43.4492 3.08625 44.6731 6.62222C44.8618 7.16717 44.987 7.73327 45.1404 8.2888L45.1422 8.28703ZM3.78463 11.2975V63.986C4.15498 63.986 4.4689 63.986 4.78281 63.986C16.6499 63.9913 28.517 63.986 40.3858 64.0195C41.2465 64.0213 41.451 63.7691 41.451 62.9331C41.4281 46.0434 41.4334 29.1519 41.4316 12.2621C41.4316 11.95 41.4052 11.6378 41.3911 11.2975H3.78463ZM41.3135 67.7477H3.83401C3.08978 72.169 5.68224 75.2711 10.0718 75.2729C18.447 75.2782 26.8222 75.2835 35.1974 75.2817C39.4794 75.2817 42.1424 72.0173 41.3153 67.7459L41.3135 67.7477ZM41.0648 7.52341C40.9008 7.15129 40.8056 6.84972 40.6469 6.58519C39.5111 4.68229 37.8022 3.7282 35.6119 3.72291C26.9157 3.70527 18.2212 3.7088 9.52506 3.73349C7.3347 3.73878 5.62756 4.69993 4.49359 6.60106C4.33839 6.86207 4.25021 7.16364 4.09855 7.52164H41.0648V7.52341Z" fill="#039123"/>
<path d="M22.5415 73.3329C21.9243 73.3329 21.307 73.3594 20.6915 73.3276C19.5964 73.2694 18.8574 72.5041 18.8574 71.4724C18.8574 70.4248 19.5875 69.6753 20.6986 69.6488C21.9595 69.6206 23.224 69.6189 24.485 69.6524C25.5467 69.6823 26.2574 70.4248 26.275 71.4353C26.2909 72.4388 25.6013 73.2324 24.5643 73.3135C23.8942 73.3664 23.2152 73.3241 22.5398 73.3241C22.5398 73.3276 22.5398 73.3294 22.5398 73.3329H22.5415Z" fill="#039123"/>
</g>
<defs>
<clipPath id="clip0_459_1918">
<rect width="45.1422" height="78.9975" fill="white"/>
</clipPath>
</defs>
</svg>
