<svg width="21" height="20" viewBox="0 0 21 20" fill="none" xmlns="http://www.w3.org/2000/svg">
<path d="M15.0162 15.8519H14.3895C12.4218 15.8519 10.4978 16.4325 8.85852 17.5208L7.31843 18.5433C7.18162 18.6343 7.02262 18.6866 6.85839 18.6945C6.69416 18.7024 6.53087 18.6656 6.38592 18.5881C6.24097 18.5107 6.11981 18.3954 6.03537 18.2546C5.95092 18.1138 5.90636 17.9527 5.90643 17.7886V17.7886C5.90643 16.719 5.0064 15.9039 4.01073 15.5131C2.36368 14.8668 1.35156 13.3388 1.35156 11.3058V5.85037C1.35156 3.12267 3.17351 1.3042 5.90643 1.3042H15.0162C17.7491 1.3042 19.571 3.12267 19.571 5.85037V11.3058C19.571 14.0335 17.7491 15.8519 15.0162 15.8519Z" stroke="#333333" stroke-width="1.5" stroke-miterlimit="10" stroke-linecap="round" stroke-linejoin="round"/>
<path d="M10.4575 9.42358V9.23265C10.4575 8.61437 10.8401 8.28704 11.2227 8.02336C11.5962 7.76878 11.9697 7.44145 11.9697 6.84136C11.9697 6.00486 11.2956 5.33203 10.4575 5.33203C9.61943 5.33203 8.94531 6.00486 8.94531 6.84136M10.453 11.5967H10.4621" stroke="#039123" stroke-width="1.5" stroke-linecap="round" stroke-linejoin="round"/>
</svg>
