<svg width="324" height="90" viewBox="0 0 324 90" fill="none" xmlns="http://www.w3.org/2000/svg">
<g clip-path="url(#clip0_1380_3177)">
<path d="M128.68 23.7145V26.1119C128.68 28.0558 129.328 29.8052 131.855 29.8052C133.734 29.8052 134.544 28.1206 134.544 26.4035C134.544 23.5201 132.179 22.451 130.073 21.1551C127.611 19.7296 125.505 18.4337 124.015 16.6843C122.557 14.9672 121.682 12.8614 121.682 9.84845C121.682 3.43376 125.538 0.161621 131.758 0.161621C138.723 0.161621 142.287 4.79445 141.898 11.2091H134.512C134.415 9.2005 134.512 6.47911 131.888 6.28473C130.235 6.15514 129.296 7.06227 129.101 8.55255C128.875 10.5935 129.911 11.6627 131.499 12.7318C134.512 14.6432 137.104 15.8419 138.95 17.559C140.829 19.2761 141.898 21.5763 141.898 25.7231C141.898 32.2674 138.27 35.9283 131.596 35.9283C124.274 35.9283 121.164 31.8463 121.164 27.3106V23.7145H128.68Z" fill="#039123"/>
<path d="M146.368 1.00342H154.371V26.7594C154.371 28.4116 154.856 29.8047 157.157 29.8047C159.263 29.8047 159.878 27.9905 159.878 26.5326V1.00342H167.88V25.7227C167.88 31.4894 165.288 35.9602 157.092 35.9602C150.321 35.9602 146.336 32.7205 146.336 25.7227V1.00342H146.368Z" fill="#039123"/>
<path d="M186.312 12.9262V10.7555C186.312 7.83981 185.276 6.34952 183.753 6.34952C181.258 6.31713 180.643 7.67782 180.643 9.91324L180.61 26.7923C180.61 28.7037 181.388 29.8376 183.494 29.8376C186.215 29.8376 186.442 27.019 186.442 24.9132V21.8031H194.444V25.9823C194.444 31.8463 191.075 35.9607 182.878 35.9607C175.492 35.9607 172.641 32.0406 172.641 25.0752V11.0471C172.641 3.62814 176.042 0.161621 183.397 0.161621C190.232 0.161621 194.315 3.07738 194.315 10.0428V12.9262H186.312Z" fill="#039123"/>
<path d="M199.211 35.1179V1.00342H207.213V14.1244H212.753V1.00342H220.755V35.1503H212.753V20.9278H207.213V35.1179H199.211Z" fill="#039123"/>
<path d="M226.102 35.1179V1.00342H234.104V35.1503H226.102V35.1179Z" fill="#039123"/>
<path d="M238.57 1.00342H259.337V7.83927H252.858V35.1503H244.855V7.80688H238.57V1.00342Z" fill="#039123"/>
<path d="M286.228 24.9448H286.325L288.82 1.0031H296.433L290.731 35.15H281.725L279.262 11.1111H279.165L276.541 35.15H267.664L261.93 1.0031H269.673L272.07 24.9772L272.167 24.88L275.407 0.970703H283.15L286.228 24.9448Z" fill="#039123"/>
<path d="M297.602 35.1176L305.053 0.970703H314.707L322.126 35.1176H314.027L312.926 28.4762H306.64L305.669 35.1176H297.602ZM309.913 7.19101H309.815L307.483 22.4826H312.116L309.913 7.19101Z" fill="#039123"/>
<path d="M121.266 73.9958V39.8813H132.67L136.849 60.0325H136.946L141.255 39.8813H152.562V74.0282H144.851L145.693 47.268H145.596L139.894 74.0282H133.868L128.296 47.268H128.199L128.944 74.0282H121.266V73.9958Z" fill="#01295A"/>
<path d="M158.297 73.9958V39.8813H166.396V74.0282H158.297V73.9958Z" fill="#01295A"/>
<path d="M178.087 62.592V64.9894C178.087 66.9333 178.734 68.6828 181.294 68.6828C183.173 68.6828 184.015 66.9981 184.015 65.281C184.015 62.3977 181.618 61.3285 179.512 60.0326C177.017 58.6072 174.912 57.3113 173.389 55.5618C171.931 53.8447 171.056 51.7389 171.056 48.7259C171.056 42.3112 174.976 39.0391 181.229 39.0391C188.259 39.0391 191.855 43.6719 191.467 50.0866H184.015C183.918 48.078 184.015 45.3566 181.359 45.1622C179.706 45.0326 178.734 45.9398 178.54 47.43C178.313 49.4711 179.382 50.5402 180.97 51.6093C184.015 53.5208 186.639 54.7195 188.518 56.4365C190.398 58.1536 191.499 60.4538 191.499 64.6007C191.499 71.145 187.806 74.8059 181.099 74.8059C173.713 74.8059 170.57 70.7238 170.57 66.1882V62.5596H178.087V62.592Z" fill="#01295A"/>
<path d="M202.258 62.592V64.9894C202.258 66.9333 202.906 68.6828 205.466 68.6828C207.345 68.6828 208.187 66.9981 208.187 65.281C208.187 62.3977 205.79 61.3285 203.684 60.0326C201.189 58.6072 199.083 57.3113 197.561 55.5618C196.103 53.8447 195.228 51.7389 195.228 48.7259C195.228 42.3112 199.148 39.0391 205.401 39.0391C212.431 39.0391 216.027 43.6719 215.639 50.0866H208.187C208.09 48.078 208.187 45.3566 205.531 45.1622C203.878 45.0326 202.906 45.9398 202.712 47.43C202.485 49.4711 203.554 50.5402 205.142 51.6093C208.187 53.5208 210.811 54.7195 212.69 56.4365C214.569 58.1536 215.671 60.4538 215.671 64.6007C215.671 71.145 211.978 74.8059 205.271 74.8059C197.885 74.8059 194.742 70.7238 194.742 66.1882V62.5596H202.258V62.592Z" fill="#01295A"/>
<path d="M220.5 73.9958V39.8813H228.599V74.0282H220.5V73.9958Z" fill="#01295A"/>
<path d="M255.847 63.1428C255.847 70.821 253.126 74.8383 244.962 74.8383C236.797 74.8383 233.914 70.821 233.914 63.1428V49.2443C233.914 42.7 237.867 39.0391 244.962 39.0391C252.057 39.0391 255.847 42.6676 255.847 49.2443V63.1428ZM247.78 49.795C247.78 47.6892 247.586 45.1946 244.929 45.1946C242.37 45.1946 242.046 47.6892 242.046 49.795V63.8231C242.046 65.767 242.37 68.6827 244.994 68.6827C247.618 68.6827 247.813 65.767 247.813 63.8231V49.795H247.78Z" fill="#01295A"/>
<path d="M267.804 54.8814L267.706 54.9785L268.452 73.9958H260.773V39.8813H269.1L275.352 58.9634H275.482L274.704 39.8813H282.383V74.0282H274.121L267.804 54.8814Z" fill="#01295A"/>
<path d="M124.117 87.3424V80.4741H125.737V85.9493H127.713V87.31H124.117V87.3424Z" fill="#1A1A1A"/>
<path d="M133.092 85.1397C133.092 86.6947 132.542 87.5047 130.922 87.5047C129.302 87.5047 128.719 86.6947 128.719 85.1397V82.3535C128.719 81.0252 129.496 80.3125 130.922 80.3125C132.315 80.3125 133.092 81.0576 133.092 82.3535V85.1397ZM131.473 82.4831C131.473 82.0619 131.44 81.5436 130.889 81.5436C130.371 81.5436 130.306 82.0619 130.306 82.4831V85.3017C130.306 85.6904 130.371 86.2736 130.889 86.2736C131.408 86.2736 131.44 85.6904 131.44 85.3017V82.4831H131.473Z" fill="#1A1A1A"/>
<path d="M137.043 82.8716V82.418C137.043 81.8349 136.848 81.5433 136.524 81.5433C136.006 81.5433 135.909 81.8025 135.909 82.256V85.6578C135.909 86.0465 136.071 86.2733 136.492 86.2733C137.043 86.2733 137.075 85.6902 137.075 85.269V84.6534H138.695V85.4958C138.695 86.6621 138.015 87.5044 136.362 87.5044C134.872 87.5044 134.289 86.7269 134.289 85.3014V82.4828C134.289 80.9925 134.969 80.2798 136.46 80.2798C137.82 80.2798 138.663 80.8629 138.663 82.256V82.8392H137.043V82.8716Z" fill="#1A1A1A"/>
<path d="M139.633 87.3424L141.123 80.4741H143.067L144.557 87.3424H142.937L142.711 86.0141H141.447L141.253 87.3424H139.633ZM142.095 81.7052L141.609 84.783H142.549L142.095 81.7052Z" fill="#1A1A1A"/>
<path d="M145.469 87.3424V80.4741H147.089V85.9493H149.065V87.31H145.469V87.3424Z" fill="#1A1A1A"/>
<path d="M154.148 85.0424V85.5283C154.148 85.9171 154.277 86.2735 154.796 86.2735C155.184 86.2735 155.346 85.9495 155.346 85.5931C155.346 85.01 154.86 84.7832 154.439 84.5564C153.953 84.2648 153.532 84.0056 153.208 83.6493C152.917 83.2929 152.755 82.8717 152.755 82.2886C152.755 80.9927 153.532 80.3447 154.763 80.3447C156.156 80.3447 156.869 81.2842 156.804 82.5801H155.314C155.282 82.1914 155.314 81.6406 154.796 81.5758C154.472 81.5434 154.277 81.7378 154.245 82.0294C154.212 82.4506 154.407 82.6449 154.731 82.8717C155.346 83.2605 155.865 83.4873 156.221 83.8436C156.61 84.2 156.804 84.6536 156.804 85.4959C156.804 86.8242 156.059 87.537 154.731 87.537C153.273 87.537 152.625 86.727 152.625 85.8199V85.0748H154.148V85.0424Z" fill="#1A1A1A"/>
<path d="M158.008 87.3424V80.4741H161.701V81.8348H159.628V83.0983H161.636V84.459H159.628V85.9493H161.831V87.31H158.008V87.3424Z" fill="#1A1A1A"/>
<path d="M162.992 87.3424V80.4741H164.612V85.9493H166.588V87.31H162.992V87.3424Z" fill="#1A1A1A"/>
<path d="M167.656 87.3424V80.4741H171.447V81.8348H169.276V83.0659H171.285V84.4266H169.276V87.3424H167.656Z" fill="#1A1A1A"/>
<path d="M178.672 87.3424L178.607 86.7269H178.575C178.251 87.31 177.894 87.5044 177.181 87.5044C175.821 87.5044 175.367 86.5649 175.367 85.3014V82.4828C175.367 80.9925 176.048 80.2798 177.538 80.2798C178.898 80.2798 179.741 80.8629 179.741 82.256V82.7744H178.121V82.3856C178.121 81.8025 178.056 81.5109 177.603 81.5109C177.084 81.5109 176.987 81.7701 176.987 82.2236V85.6254C176.987 86.0141 177.149 86.2409 177.57 86.2409C178.121 86.2409 178.153 85.7873 178.153 85.3662V84.8154H177.57V83.5843H179.773V87.31H178.672V87.3424Z" fill="#1A1A1A"/>
<path d="M185.413 85.1397C185.413 86.6947 184.862 87.5047 183.242 87.5047C181.622 87.5047 181.039 86.6947 181.039 85.1397V82.3535C181.039 81.0252 181.817 80.3125 183.242 80.3125C184.668 80.3125 185.413 81.0576 185.413 82.3535V85.1397ZM183.825 82.4831C183.825 82.0619 183.793 81.5436 183.242 81.5436C182.724 81.5436 182.659 82.0619 182.659 82.4831V85.3017C182.659 85.6904 182.724 86.2736 183.242 86.2736C183.76 86.2736 183.793 85.6904 183.793 85.3017V82.4831H183.825Z" fill="#1A1A1A"/>
<path d="M187.873 87.3424L186.383 80.4741H188.003L188.813 85.3013H188.845L189.655 80.4741H191.275L189.785 87.3424H187.873Z" fill="#1A1A1A"/>
<path d="M192.281 87.3424V80.4741H195.975V81.8348H193.901V83.0983H195.91V84.459H193.901V85.9493H196.104V87.31H192.281V87.3424Z" fill="#1A1A1A"/>
<path d="M198.956 87.3424H197.336V80.4741H199.701C201.029 80.4741 201.677 80.9925 201.677 82.3532C201.677 83.0983 201.515 83.6167 200.835 83.9082V83.9406C201.288 84.0378 201.612 84.3618 201.645 84.8154C201.677 85.3661 201.71 86.5324 201.807 86.986C201.839 87.0832 201.904 87.148 201.969 87.2128V87.31H200.219C200.187 87.1804 200.122 87.0508 200.122 86.9212C200.09 86.3057 200.122 85.7549 200.09 85.3337C200.057 84.9126 199.928 84.6534 199.539 84.621H199.021V87.3424H198.956ZM198.956 83.3899H199.507C199.96 83.3899 200.09 82.9687 200.09 82.5476C200.09 81.7376 199.766 81.7052 198.956 81.7052V83.3899Z" fill="#1A1A1A"/>
<path d="M204.338 83.4871L204.468 87.3424H202.945V80.4741H204.598L205.829 84.297H205.861L205.699 80.4741H207.222V87.3424H205.569L204.338 83.4871Z" fill="#1A1A1A"/>
<path d="M208.578 87.3424V80.4741H210.846L211.688 84.5238H211.721L212.595 80.4741H214.831V87.3424H213.308L213.47 81.9644H213.438L212.304 87.3424H211.105L210.004 81.9644H209.971L210.133 87.3424H208.578Z" fill="#1A1A1A"/>
<path d="M216.195 87.3424V80.4741H219.889V81.8348H217.815V83.0983H219.824V84.459H217.815V85.9493H220.018V87.31H216.195V87.3424Z" fill="#1A1A1A"/>
<path d="M222.635 83.4871L222.765 87.3424H221.242V80.4741H222.894L224.126 84.297H224.158L223.996 80.4741H225.519V87.3424H223.866L222.635 83.4871Z" fill="#1A1A1A"/>
<path d="M226.625 80.4741H230.804V81.8348H229.508V87.31H227.889V81.8348H226.625V80.4741Z" fill="#1A1A1A"/>
<path d="M234.719 87.3424V80.4741H236.468C237.051 80.4741 237.764 80.5065 238.282 80.7981C238.898 81.1545 238.995 81.8348 238.995 82.4828V85.5281C238.995 86.2085 238.768 86.7268 238.315 87.0184C237.894 87.2776 237.375 87.3424 236.889 87.3424H234.719ZM236.339 86.1113C237.408 86.1761 237.44 85.7549 237.408 84.8154V82.58C237.408 81.77 237.149 81.7376 236.339 81.7052V86.1113Z" fill="#1A1A1A"/>
<path d="M240.328 87.3424V80.4741H244.021V81.8348H241.948V83.0983H243.957V84.459H241.948V85.9493H244.151V87.31H240.328V87.3424Z" fill="#1A1A1A"/>
<path d="M245.477 87.3424V80.4741H247.388C248.004 80.4741 248.911 80.5389 249.364 81.0573C249.753 81.4784 249.818 81.9968 249.818 82.5476C249.818 83.2927 249.656 84.135 248.911 84.459C248.36 84.7182 247.712 84.6534 247.096 84.6858V87.3424H245.477ZM247.064 83.4223C247.356 83.4223 247.712 83.4547 247.971 83.2603C248.133 83.0659 248.166 82.8067 248.166 82.58C248.166 82.3208 248.133 81.8996 247.874 81.77C247.712 81.7052 247.485 81.7052 247.258 81.7052H247.096V83.4223H247.064Z" fill="#1A1A1A"/>
<path d="M250.305 87.3424L251.795 80.4741H253.739L255.229 87.3424H253.609L253.382 86.0141H252.119L251.925 87.3424H250.305ZM252.799 81.7052L252.313 84.783H253.253L252.799 81.7052Z" fill="#1A1A1A"/>
<path d="M257.823 87.3424H256.203V80.4741H258.568C259.896 80.4741 260.544 80.9925 260.544 82.3532C260.544 83.0983 260.382 83.6167 259.702 83.9082V83.9406C260.156 84.0378 260.48 84.3618 260.512 84.8154C260.544 85.3661 260.577 86.5324 260.674 86.986C260.706 87.0832 260.771 87.148 260.836 87.2128V87.31H259.086C259.054 87.1804 258.989 87.0508 258.989 86.9212C258.957 86.3057 258.989 85.7549 258.957 85.3337C258.925 84.9126 258.795 84.6534 258.406 84.621H257.888V87.3424H257.823ZM257.823 83.3899H258.374C258.827 83.3899 258.957 82.9687 258.957 82.5476C258.957 81.7376 258.633 81.7052 257.823 81.7052V83.3899Z" fill="#1A1A1A"/>
<path d="M261.445 80.4741H265.625V81.8348H264.329V87.31H262.709V81.8348H261.445V80.4741Z" fill="#1A1A1A"/>
<path d="M266.797 87.3424V80.4741H269.065L269.907 84.5238H269.939L270.814 80.4741H273.05V87.3424H271.527L271.689 81.9644H271.656L270.523 87.3424H269.324L268.222 81.9644H268.19L268.352 87.3424H266.797Z" fill="#1A1A1A"/>
<path d="M274.375 87.3424V80.4741H278.068V81.8348H275.995V83.0983H278.004V84.459H275.995V85.9493H278.198V87.31H274.375V87.3424Z" fill="#1A1A1A"/>
<path d="M280.823 83.4871L280.952 87.3424H279.43V80.4741H281.082L282.313 84.297H282.345L282.183 80.4741H283.706V87.3424H282.054L280.823 83.4871Z" fill="#1A1A1A"/>
<path d="M284.836 80.4741H289.015V81.8348H287.719V87.31H286.099V81.8348H284.836V80.4741Z" fill="#1A1A1A"/>
<path d="M292.906 87.3424V80.4741H294.526V83.2279H294.559L295.757 80.4741H297.409L295.952 83.5195L297.507 87.3424H295.757L294.882 84.945L294.526 85.6253V87.31H292.906V87.3424Z" fill="#1A1A1A"/>
<path d="M298.516 87.3424V80.4741H302.209V81.8348H300.135V83.0983H302.144V84.459H300.135V85.9493H302.339V87.31H298.516V87.3424Z" fill="#1A1A1A"/>
<path d="M305.19 87.3424H303.57V80.4741H305.935C307.264 80.4741 307.912 80.9925 307.912 82.3532C307.912 83.0983 307.75 83.6167 307.069 83.9082V83.9406C307.523 84.0378 307.847 84.3618 307.879 84.8154C307.912 85.3661 307.944 86.5324 308.041 86.986C308.074 87.0832 308.138 87.148 308.203 87.2128V87.31H306.454C306.421 87.1804 306.357 87.0508 306.357 86.9212C306.324 86.3057 306.356 85.7549 306.324 85.3337C306.292 84.9126 306.162 84.6534 305.773 84.621H305.255V87.3424H305.19ZM305.19 83.3899H305.741C306.195 83.3899 306.324 82.9687 306.324 82.5476C306.324 81.7376 306 81.7052 305.19 81.7052V83.3899Z" fill="#1A1A1A"/>
<path d="M308.852 87.3424L310.342 80.4741H312.286L313.776 87.3424H312.156L311.929 86.0141H310.666L310.471 87.3424H308.852ZM311.314 81.7052L310.828 84.783H311.767L311.314 81.7052Z" fill="#1A1A1A"/>
<path d="M314.711 87.3424V80.4741H316.331V85.9493H318.307V87.31H314.711V87.3424Z" fill="#1A1A1A"/>
<path d="M319.023 87.3424L320.514 80.4741H322.458L323.948 87.3424H322.328L322.101 86.0141H320.838L320.643 87.3424H319.023ZM321.486 81.7052L321 84.783H321.939L321.486 81.7052Z" fill="#1A1A1A"/>
<path d="M110.833 82.5807C110.93 82.8075 110.735 83.0667 110.509 83.0343C109.18 82.9695 108.144 82.3863 107.236 81.706C104.742 79.8917 102.344 77.9803 99.9147 76.1012C99.3963 75.7125 98.9104 75.2589 98.23 75.0321C99.3315 76.0364 100.401 77.1055 101.567 78.0127C103.802 79.7621 106.167 81.382 108.403 83.1963C109.44 84.0386 110.347 85.0753 111.059 86.1768C111.643 87.0516 111.319 87.3755 110.282 87.4403C109.958 87.4727 109.602 87.5051 109.342 87.6995C106.88 89.4166 104.483 88.3799 102.668 86.7276C100.822 85.0429 99.0399 83.2935 97.4201 81.4144C93.0464 76.3604 88.7376 71.2092 84.4287 66.0904C84.1695 65.7988 83.9104 65.5397 83.4892 65.2481C84.0723 66.868 82.906 67.8075 82.3553 69.0386C81.4806 70.95 80.9298 73.0235 80.3142 75.0645C80.0551 75.8744 79.7959 76.9112 79.5691 77.7535C79.5367 77.9479 79.3423 78.0451 79.1803 78.0451C78.9212 78.0451 78.7592 77.7859 78.824 77.5591C78.9212 77.2351 79.0831 76.652 79.1479 76.3604C79.6663 74.3518 80.2818 72.3431 80.865 70.3669C81.0594 69.6865 81.2538 68.9738 81.4806 68.1639L77.8844 67.9695C78.2408 67.3215 78.0788 66.382 77.2041 66.3496C74.5151 66.1876 72.5389 64.7297 70.757 62.9479C69.8823 62.0731 69.1371 61.0688 68.1328 59.8701C70.1415 60.2913 71.8261 60.6477 73.5108 61.004C77.2689 61.7492 81.1242 62.1703 84.7851 63.2718C93.7268 65.9608 101.373 70.8528 107.658 77.8183C108.759 79.017 109.602 80.4749 110.541 81.8032C110.606 82.0624 110.703 82.2891 110.833 82.5807Z" fill="#1A1A1A"/>
<path d="M72.6964 79.1794C72.4697 79.1146 72.3077 78.8878 72.3401 78.6286C72.4049 78.4018 72.4697 78.2074 72.5345 78.0131C73.7656 74.6437 75.0291 71.3068 76.2926 67.9375C76.3573 67.7755 76.5517 67.0951 76.6489 66.9979C77.0053 66.6092 77.6856 66.7387 77.3941 67.7755C76.3573 70.6588 75.2882 73.5422 74.2191 76.4256C73.9599 77.1383 73.7008 77.8835 73.4092 78.5638C73.3444 78.6934 73.312 78.823 73.2472 78.9526C73.1824 79.147 72.9232 79.2441 72.6964 79.1794Z" fill="#1A1A1A"/>
<path d="M86.1734 79.1471C84.262 77.9484 82.1561 78.1428 79.9531 78.4668C80.0503 77.9808 80.1151 77.6244 80.2123 77.1709C82.3505 77.5272 84.7155 77.0089 86.2382 79.1147C86.2382 79.1147 86.2058 79.1471 86.1734 79.1471Z" fill="#1A1A1A"/>
<path d="M73.2812 79.6656C73.4756 79.3093 73.5405 78.9853 73.7025 78.9205C75.128 78.5641 76.0675 78.4669 78.141 77.2358C78.141 77.2358 78.1734 77.2358 78.1734 77.2682C76.9423 78.7261 75.5815 79.86 73.2812 79.6656Z" fill="#1A1A1A"/>
<path d="M71.9221 79.3734C69.3303 78.8874 65.9609 79.2114 65.9609 79.2114C66.3821 78.531 69.4275 78.2071 71.8573 78.5958C71.8573 78.5958 71.6305 78.8874 71.9221 79.3734Z" fill="#1A1A1A"/>
<path d="M78.4682 82.4842C77.723 81.3826 76.5891 80.7671 75.2608 80.7023C75.1636 80.7023 75.0665 80.7023 74.9693 80.7023C74.3861 80.7023 73.7382 80.6699 73.1874 80.2163L73.0902 80.1191H73.0578L73.0254 80.2487C72.9606 80.4755 73.0254 80.7023 73.155 80.8967C73.3494 81.1559 73.7706 81.3502 74.2241 81.3826C75.3904 81.4474 77.0751 81.6418 78.371 82.5813L78.7598 82.8729C78.7922 82.9053 78.8246 82.8729 78.7922 82.8405L78.4682 82.4842Z" fill="#1A1A1A"/>
<path d="M72.4751 79.9571C72.1188 79.8599 71.9892 79.5684 71.9892 79.5684C71.9892 79.5684 71.73 79.6008 71.1468 79.9247C70.7581 80.1515 70.1749 80.5079 69.2354 80.7995C67.5507 81.3502 64.6674 80.5727 64.635 80.5727C62.3671 80.1839 61.5572 81.3502 61.5248 81.415L61.2656 81.7714L61.622 81.5122C62.6911 80.7347 64.8293 81.3502 64.9265 81.3502C65.7041 81.6742 67.2591 81.8686 67.3239 81.8686C67.4859 81.8686 67.6479 81.901 67.7775 81.901C70.1749 81.901 72.3455 80.0867 72.3779 80.0867L72.4751 79.9571Z" fill="#1A1A1A"/>
<path d="M99.2009 68.067C97.5162 62.2678 95.5724 56.5659 93.1102 51.0259C90.5832 45.3888 86.7603 41.0799 81.1555 38.3585C77.8834 36.7711 75.1296 34.5033 72.9266 31.5875C71.7927 30.0648 70.6264 28.5421 69.2981 27.1814C65.6048 23.4881 61.1987 21.9655 56.4039 24.5248C55.1404 25.2376 53.0346 26.7927 53.0346 26.7927L52.905 26.8575L55.594 23.7473C62.3002 15.8747 69.0389 8.03456 75.9072 0C75.9072 0 72.7646 0.0647948 72.8294 0C72.8294 0 58.0238 17.3974 51.1879 25.4968C51.0907 25.6264 50.9935 25.7236 50.8963 25.8207L50.2484 26.5659C50.2484 26.5659 47.1382 26.8251 44.5788 28.6069C44.5465 28.6393 44.5465 28.7041 44.5788 28.7365C44.6112 28.7365 44.6112 28.7365 44.6436 28.7365L45.486 28.9957C45.9395 29.1577 46.9763 29.3197 47.5918 29.5464L47.1059 30.1296C46.8467 30.4536 46.5875 30.7452 46.3283 31.0367L40.27 38.229L39.8812 37.9374L39.2657 38.5853L39.622 38.9093C39.622 38.9093 11.9223 59.2873 0 68.067L1.61987 68.4558C1.68467 68.391 1.74946 68.3586 1.84665 68.2938C5.89633 65.1512 10.0756 62.0087 14.1577 58.8985C14.6112 58.5745 15.0648 58.2506 15.486 57.9266C15.5184 57.9914 15.5832 58.0562 15.6156 58.121C11.2743 61.6199 6.86825 65.1512 2.4622 68.6825L4.11447 69.0713C7.93737 65.864 11.9223 62.6242 15.7775 59.4817C17.5918 57.9914 19.4061 56.5011 21.1879 55.0108C21.2203 55.0756 21.2851 55.108 21.3175 55.1728C16.1339 59.9028 10.8531 64.6653 5.63715 69.4277L6.83586 69.7193C6.86825 69.6869 6.93305 69.6545 6.96545 69.5897C12.6674 64.6329 18.4341 59.6113 24.1361 54.6544C24.2009 54.5897 24.2657 54.5573 24.3305 54.5249C19.3089 59.7408 14.2225 65.054 9.23326 70.27L10.4968 70.5616C13.2829 67.6458 16.1663 64.6977 19.0173 61.8791C20.7344 60.162 22.5486 58.5421 23.8121 57.311C20.1836 61.4903 16.1015 66.2203 12.0194 70.918L13.4449 71.2419C13.5097 71.1771 13.5745 71.1123 13.6393 71.0475C16.9762 67.1599 20.4428 63.2398 23.8121 59.3845C24.7192 58.3154 25.6588 57.2786 26.5659 56.2095C26.6631 56.3067 26.6307 56.2419 26.7279 56.3391C22.8402 61.3931 18.9201 66.5443 15 71.6307L16.1663 71.8899C16.1987 71.8575 16.2311 71.8251 16.2311 71.7927C18.9849 68.0346 21.8359 64.2441 24.5896 60.486C26.3715 58.0562 28.1534 55.6264 29.9676 53.1966C30.0324 53.229 30.0648 53.2614 30.1296 53.3262C25.8531 59.5789 21.5443 65.8964 17.2678 72.1491L18.6609 72.473C18.6933 72.4082 18.7257 72.3758 18.7905 72.311C21.6739 67.8726 24.6868 63.3694 27.635 58.9309C28.0238 58.3802 28.4125 57.797 28.8013 57.2462C28.8661 57.2786 28.8985 57.311 28.9633 57.3758C25.9179 62.4946 22.8078 67.6782 19.7948 72.7322L21.1231 73.0238C21.1879 72.9266 21.2527 72.8294 21.2851 72.7322C23.4557 69.0065 25.756 65.216 27.959 61.4903C28.8013 60.0972 29.6436 58.6717 30.486 57.2786C30.6156 57.3434 30.5508 57.311 30.6804 57.3758C27.9266 62.6566 25.108 68.0022 22.3542 73.283L23.6501 73.5745C23.6825 73.5098 23.7473 73.445 23.7797 73.3478C25.7883 69.3629 27.8942 65.3132 29.9352 61.3283C30.8423 59.5141 31.7819 57.7322 32.7214 55.918C32.851 55.9827 32.7862 55.9503 32.9158 56.0151C30.2916 61.9115 27.5702 67.8726 24.9136 73.8337L26.0799 74.0929C28.0886 69.5897 30.162 65.0864 32.1382 60.6804C32.2354 60.7128 32.3002 60.7452 32.3974 60.7776C30.6156 65.2484 28.7365 69.8164 26.9547 74.2873L27.8294 74.5141C27.8618 74.4493 27.8618 74.3845 27.8942 74.3521C30 69.0065 32.1706 63.5961 34.3089 58.2506C34.4709 57.8618 34.6328 57.473 34.8272 57.0843C34.892 57.1167 34.9568 57.1491 35.0216 57.1814C33.0778 63.0454 31.1015 68.9741 29.1577 74.838L30.1296 75.0648C30.1296 75.0324 30.162 75 30.162 74.9676C31.0691 72.0195 32.0734 69.0389 33.013 66.0907C35.4752 58.3802 39.0065 48.2074 41.4687 40.4968L41.7927 40.756L42.4406 39.946L41.9223 39.4601L45.3564 35.5724C46.7171 34.0173 48.0778 32.4622 49.4385 30.9071L49.4709 30.8747C49.5681 30.7452 49.6652 30.648 49.7948 30.5184C49.8272 30.486 49.8596 30.4536 49.892 30.4212L50.216 30.0648C50.9935 30.2916 51.6091 30.648 53.067 30.9395C53.067 30.9395 54.0389 32.041 54.8812 32.689C55.0432 32.8186 55.2052 32.9482 55.3672 33.0778C58.2182 35.216 59.3845 38.1966 59.7732 41.5983C59.8056 41.9223 59.6761 42.311 59.4493 42.5702C58.5421 43.5421 58.1858 44.7408 58.2182 46.0043C58.3478 51.2851 60.9395 57.797 68.4882 59.4817C71.2743 60.0972 74.0929 60.4536 76.9439 60.8424C81.9979 61.4903 86.9223 62.4622 91.4579 64.892C94.2441 66.3823 96.9655 68.067 99.7193 69.6545C99.5249 69.1685 99.3629 68.6177 99.2009 68.067ZM61.4903 27.311C61.4903 28.0886 60.8424 28.7365 60.0648 28.7365C59.2873 28.7365 58.6393 28.0886 58.6393 27.311C58.6393 26.5335 59.2873 25.8855 60.0648 25.8855C60.8424 25.8855 61.4903 26.5335 61.4903 27.311Z" fill="#1A1A1A"/>
<path d="M92.3954 88.0886C91.4883 88.0886 90.9375 87.5378 90.9375 86.7279C90.9375 85.9179 91.5531 85.3672 92.3954 85.3672C93.2701 85.3672 93.8533 85.8856 93.8533 86.7279C93.8857 87.5378 93.2701 88.0886 92.3954 88.0886ZM92.3954 85.9179C91.9742 85.9179 91.6502 86.1771 91.6502 86.7279C91.6502 87.2462 91.9742 87.5378 92.3954 87.5378C92.8166 87.5378 93.1405 87.2786 93.1405 86.7279C93.1729 86.1771 92.8489 85.9179 92.3954 85.9179Z" fill="#1A1A1A"/>
<path d="M88.2492 84.4609C87.3421 84.4609 86.7265 84.7201 86.4349 85.1089C86.6293 85.0117 86.8237 84.9469 87.0505 84.9469C87.828 84.9469 88.1844 85.4328 88.1844 86.016C88.1844 86.5991 87.7956 87.1499 86.9209 87.1499C86.1434 87.1499 85.625 86.6315 85.625 85.7244C85.625 84.6877 86.5321 83.9102 88.2816 83.9102C89.7071 83.9102 90.355 84.3313 90.355 85.1089C90.355 85.4976 90.1606 85.8216 89.7071 85.9836C90.193 86.178 90.4198 86.5343 90.4198 86.9555C90.4198 87.2795 90.2902 87.5387 90.0958 87.733C89.8367 87.9274 89.5451 88.0246 88.8 88.0246H87.3097C86.8885 88.0246 86.7589 88.057 86.6293 88.1218C86.4997 88.1866 86.4349 88.3162 86.4349 88.4458C86.4349 88.5754 86.4673 88.705 86.5969 88.7698C86.7265 88.8346 86.8885 88.8994 87.3097 88.8994H90.3226V89.4825H87.2449C86.7265 89.4825 86.3377 89.4177 86.111 89.2557C85.8194 89.0937 85.6898 88.8346 85.6898 88.4782C85.6898 88.1218 85.8194 87.8626 86.111 87.6683C86.3377 87.5387 86.5969 87.4415 87.1801 87.4415H88.7676C89.1563 87.4415 89.4155 87.4091 89.5451 87.2795C89.6423 87.2147 89.7071 87.0851 89.7071 86.8583C89.7071 86.6963 89.6423 86.5343 89.4803 86.4372C89.3507 86.34 89.1563 86.3076 88.8 86.3076H88.6704V85.7244H88.7352C89.0591 85.7244 89.2535 85.692 89.4155 85.5948C89.5775 85.4652 89.6099 85.368 89.6099 85.1737C89.6099 84.7201 89.2535 84.4609 88.2492 84.4609ZM86.2729 85.7244C86.2729 86.2752 86.4673 86.5667 86.8885 86.5667C87.2773 86.5667 87.4717 86.3076 87.4717 85.9836C87.4717 85.692 87.3097 85.4328 86.9209 85.4328C86.6293 85.4652 86.4349 85.5948 86.2729 85.7244Z" fill="#1A1A1A"/>
<path d="M82.518 83.8774C84.2027 83.8774 85.045 84.9142 85.045 86.2425C85.045 87.506 84.3647 88.0567 83.4252 88.0567C82.4208 88.0567 81.9673 87.344 81.9673 86.534C81.9673 85.6269 82.4856 85.0438 83.3604 85.0438C83.6519 85.0438 83.9111 85.1409 84.1379 85.3029C83.9111 84.8494 83.3604 84.4606 82.518 84.4606C81.4489 84.4606 80.8334 85.0114 80.8334 85.9833C80.8334 86.696 81.1573 87.182 81.6757 87.5707L81.1897 88.0567C80.5742 87.6355 80.0234 86.9876 80.0234 85.9509C80.0882 84.8818 80.801 83.8774 82.518 83.8774ZM82.7124 86.534C82.7124 87.0848 82.9392 87.4736 83.4576 87.4736C84.0083 87.4736 84.2999 87.1172 84.2999 86.1777C84.2999 86.1453 84.2999 86.0481 84.2999 85.9509C84.1379 85.7241 83.8787 85.5621 83.5224 85.5621C82.9716 85.6269 82.7124 85.9833 82.7124 86.534Z" fill="#1A1A1A"/>
<path d="M73.6341 88.0891C72.727 88.0891 72.2734 87.6355 72.2734 86.8904C72.2734 86.4368 72.5002 86.0805 72.8566 85.8861C73.1806 85.6917 73.5369 85.6269 74.2173 85.5945C74.3469 84.5254 74.9948 83.8774 75.9991 83.8774C77.1007 83.8774 77.6514 84.5902 77.7486 85.5945C78.429 85.5945 78.8177 85.6917 79.1417 85.9185C79.4333 86.1129 79.6277 86.4044 79.6277 86.8904C79.6277 87.6679 79.1417 88.0891 78.2994 88.0891C78.0726 88.0891 77.8134 88.0567 77.5866 87.9919L77.7486 87.4412C77.8782 87.4736 78.0726 87.506 78.2346 87.506C78.6881 87.506 78.9149 87.3116 78.9149 86.8904C78.9149 86.6312 78.8177 86.4692 78.6233 86.372C78.4289 86.2425 78.1698 86.2101 77.781 86.1777C77.7162 87.4412 77.0683 88.0891 76.0315 88.0891C75.6104 88.0891 75.2216 87.9595 74.93 87.7327C74.4765 87.9919 74.1201 88.0891 73.6341 88.0891ZM75.9343 84.4606C75.3188 84.4606 74.9948 84.8494 74.8976 85.5945H76.9387C76.8739 84.817 76.5175 84.4606 75.9343 84.4606ZM75.9343 87.506C76.5499 87.506 76.9387 87.0848 76.9711 86.1777H74.8976C74.9624 87.0524 75.2864 87.506 75.9343 87.506ZM72.9862 86.858C72.9862 87.3116 73.2454 87.506 73.6989 87.506C73.9257 87.506 74.1849 87.4412 74.4441 87.2792C74.2821 86.9876 74.1849 86.5988 74.1525 86.1453C73.6989 86.1453 73.4721 86.2101 73.2454 86.3396C73.1158 86.4368 72.9862 86.5988 72.9862 86.858Z" fill="#1A1A1A"/>
<path d="M70.297 88.0891C69.0011 88.0891 67.8672 87.4412 67.8672 85.9509C67.8672 84.493 69.0335 83.8774 70.3294 83.8774C71.3661 83.8774 71.7873 84.2986 71.7873 84.8818C71.7873 85.5297 71.3013 85.8537 70.7182 85.8537C69.9082 85.8537 69.6166 85.4001 69.6166 84.8818C69.6166 84.7198 69.649 84.5902 69.7138 84.4606C69.0335 84.6226 68.6447 85.1733 68.6447 85.9509C68.6447 86.696 69.0335 87.2792 69.6814 87.4736C69.6166 87.3764 69.5842 87.2144 69.5842 87.0524C69.5842 86.5664 69.8758 86.1129 70.6858 86.1129C71.2689 86.1129 71.7549 86.4368 71.7549 87.0848C71.7225 87.6355 71.2689 88.0891 70.297 88.0891ZM70.1998 84.8494C70.1998 85.0761 70.3294 85.3029 70.6534 85.3029C70.9449 85.3029 71.0745 85.1085 71.0745 84.8818C71.0745 84.5254 70.783 84.3958 70.459 84.3958C70.4266 84.3958 70.3618 84.3958 70.3294 84.3958C70.2646 84.5254 70.1998 84.6874 70.1998 84.8494ZM70.1674 87.0848C70.1674 87.2468 70.2322 87.4088 70.297 87.5384C70.3294 87.5384 70.3618 87.5384 70.3942 87.5384C70.7506 87.5384 71.0421 87.3764 71.0421 87.0524C71.0421 86.8256 70.9125 86.6312 70.621 86.6312C70.297 86.6312 70.1674 86.8904 70.1674 87.0848Z" fill="#1A1A1A"/>
<path d="M53.3529 88.0891C52.4458 88.0891 51.9922 87.6355 51.9922 86.8904C51.9922 86.4368 52.219 86.0805 52.5753 85.8861C52.8993 85.6917 53.2557 85.6269 53.936 85.5945C54.0656 84.5254 54.7136 83.8774 55.7179 83.8774C56.8194 83.8774 57.3702 84.5902 57.4674 85.5621H57.7913C58.0829 85.5621 58.2773 85.6269 58.3745 85.7565C58.4069 84.9466 58.6661 84.5254 59.0548 84.2662C59.4436 83.9746 59.9296 83.8774 60.4479 83.8774C60.9015 83.8774 61.2578 83.9422 61.6142 84.1042C61.9706 83.9422 62.3918 83.8774 62.8453 83.8774C64.4004 83.8774 65.0807 84.8494 65.0807 85.9509C65.0807 86.9552 64.5948 87.6031 63.9144 88.0567L63.4609 87.5707C63.9144 87.2468 64.3032 86.7608 64.3032 86.0157C64.3032 85.1085 63.7525 84.4282 62.7481 84.4282C62.5213 84.4282 62.327 84.4282 62.165 84.493C62.7157 84.9142 63.0721 85.5621 63.0721 86.372C63.0721 87.4412 62.5213 88.0567 61.517 88.0567C60.5127 88.0567 59.962 87.4088 59.962 86.372C59.962 85.5621 60.3507 84.9142 60.9663 84.493C60.8367 84.4606 60.6747 84.4282 60.4479 84.4282C59.9296 84.4282 59.638 84.5578 59.476 84.7522C59.2168 85.0114 59.0872 85.3353 59.0872 85.9833V87.9919H58.3421V86.8904C58.3421 86.5664 58.3097 86.4044 58.1801 86.3072C58.0829 86.2101 57.9533 86.1777 57.6293 86.1777H57.435C57.3702 87.4412 56.7222 88.0891 55.6855 88.0891C55.2643 88.0891 54.8756 87.9595 54.584 87.7327C54.1952 87.9919 53.8388 88.0891 53.3529 88.0891ZM55.6531 84.4606C55.0375 84.4606 54.7136 84.8494 54.6164 85.5945H56.6574C56.5926 84.817 56.2362 84.4606 55.6531 84.4606ZM60.7395 86.372C60.7395 87.2792 61.1283 87.506 61.517 87.506C61.9058 87.506 62.2946 87.2792 62.2946 86.372C62.2946 85.6917 62.003 85.1085 61.517 84.7522C61.0635 85.0762 60.7395 85.6593 60.7395 86.372ZM55.6531 87.506C56.2686 87.506 56.6574 87.0848 56.6898 86.1777H54.6164C54.6812 87.0524 55.0051 87.506 55.6531 87.506ZM52.7049 86.858C52.7049 87.3116 52.9641 87.506 53.4177 87.506C53.6445 87.506 53.9036 87.4412 54.1628 87.2792C54.0008 86.9876 53.9036 86.5988 53.8712 86.1453C53.4177 86.1453 53.1909 86.2101 52.9641 86.3396C52.8021 86.4368 52.7049 86.5988 52.7049 86.858Z" fill="#1A1A1A"/>
<path d="M50.4076 89.6443C49.5652 89.6443 49.0469 89.126 49.0469 88.3808C49.0469 87.7005 49.5004 87.2469 50.1484 87.1173C50.3752 86.3722 50.5048 85.7242 50.5048 85.1411C50.5048 84.7523 50.3752 84.4283 49.954 84.4283C49.792 84.4283 49.63 84.4607 49.5328 84.4931L49.4032 83.91C49.5652 83.8776 49.8244 83.8452 50.116 83.8452C51.0231 83.8452 51.3147 84.3959 51.3147 85.0439C51.3147 85.627 51.1527 86.3398 50.9259 87.1173C51.4767 87.2793 51.8331 87.7005 51.8331 88.3484C51.7683 89.1584 51.2175 89.6443 50.4076 89.6443ZM50.4076 89.126C50.7963 89.126 51.0879 88.8668 51.0879 88.3808C51.0879 87.8948 50.7963 87.6357 50.4076 87.6357C50.0188 87.6357 49.7272 87.8948 49.7272 88.3808C49.7272 88.8668 50.0188 89.126 50.4076 89.126Z" fill="#1A1A1A"/>
<path d="M46.4542 83.8774C47.2641 83.8774 47.8149 84.0718 48.2036 84.3958C48.6248 84.7522 48.8191 85.2705 48.8191 86.0805V87.9919H44.2188V86.0805C44.2188 85.3029 44.413 84.7846 44.8018 84.4282C45.1582 84.0718 45.6766 83.8774 46.4542 83.8774ZM46.033 84.4606C45.6766 84.4606 45.3851 84.655 45.1907 84.979C45.0611 85.2381 44.9639 85.5945 44.9639 86.1453V87.4736C45.9034 86.7608 46.5838 85.9185 46.5838 85.1085C46.5838 84.7198 46.4218 84.4606 46.033 84.4606ZM47.3288 85.2057C47.3288 85.9833 46.8104 86.696 46.0005 87.4412C46.1949 87.4412 46.3893 87.4412 46.5513 87.4412H48.0415V86.1777C48.0415 85.1733 47.7825 84.7198 47.1021 84.4606C47.2317 84.655 47.3288 84.8494 47.3288 85.2057Z" fill="#1A1A1A"/>
<path d="M41.6303 88.4774C41.6303 88.5422 41.5979 88.6069 41.5979 88.7041C41.5979 89.0281 41.7274 89.3845 42.2782 89.3845C42.7642 89.3845 42.9585 89.1253 42.9585 88.7041C42.9585 88.3802 42.8614 88.0886 42.6022 87.4082C42.4078 86.9223 42.2134 86.4039 42.2134 85.8208C42.2134 85.1728 42.4402 84.4925 42.7642 83.9741H43.5417C43.1529 84.6545 42.9909 85.1728 42.9909 85.7884C42.9909 86.3391 43.1529 86.7603 43.3473 87.2463C43.5741 87.797 43.7361 88.2506 43.7361 88.7365C43.7361 89.6113 43.1529 90 42.2782 90C41.3387 90 40.8203 89.4817 40.8203 88.7365C40.8203 88.6393 40.8203 88.5422 40.8527 88.445L41.6303 88.4774Z" fill="#1A1A1A"/>
<path d="M37.2854 83.8774C37.901 83.8774 38.2572 84.1366 38.5164 84.493C38.8404 84.0718 39.2292 83.8774 39.8124 83.8774C40.9787 83.8774 41.6266 84.7522 41.6266 85.8537C41.6266 86.7932 41.2379 87.4736 40.5251 88.0567L40.0392 87.5707C40.5575 87.1496 40.8815 86.6312 40.8815 85.8537C40.8815 85.0114 40.4279 84.4282 39.7799 84.4282C39.4235 84.4282 39.1967 84.5578 39.0672 84.7846C38.9376 84.979 38.9053 85.2381 38.9053 85.7565V87.9271H38.16V85.7565C38.16 85.2381 38.1277 84.979 37.9981 84.7846C37.8686 84.5578 37.6418 84.4282 37.2854 84.4282C36.6698 84.4282 36.1838 84.979 36.1838 85.8213C36.1838 86.6312 36.5078 87.1496 36.9937 87.5384L36.4754 88.0243C35.8274 87.4736 35.4062 86.858 35.4062 85.8213C35.4063 84.6874 36.1191 83.8774 37.2854 83.8774Z" fill="#1A1A1A"/>
<path d="M33.1765 81.8687C33.5653 81.8687 33.8569 81.9334 34.0837 82.0954C34.5048 82.4194 34.6668 82.8082 34.6668 83.9097V87.9918H33.9217V84.0717C33.9217 83.3265 33.8569 82.9054 33.7273 82.6786C33.6301 82.5166 33.4681 82.4518 33.2413 82.4518C32.9497 82.4518 32.6258 82.6462 32.6258 83.0998C32.6258 83.1969 32.6258 83.2941 32.6582 83.3589L31.913 83.4885C31.8806 83.3589 31.8482 83.2617 31.8482 83.1322C31.7834 82.2574 32.4314 81.8687 33.1765 81.8687Z" fill="#1A1A1A"/>
<path d="M32.8803 83.9426V87.9922H27.4375V85.7568C27.4375 85.0117 27.5995 84.6229 27.8911 84.3637C28.215 84.0721 28.6686 83.9102 29.2518 83.9102C29.8673 83.9102 30.2885 84.0721 30.58 84.3637C30.904 84.6877 31.0336 85.1413 31.0336 85.7568V86.4696H28.1502V87.4739H32.1027V84.0073H32.8803V83.9426ZM29.2518 84.4609C28.5066 84.4609 28.215 84.8497 28.215 85.6596V85.8216H30.3209V85.6596C30.2885 84.8173 29.9645 84.4609 29.2518 84.4609Z" fill="#1A1A1A"/>
<path d="M26.6975 85.9509C26.6975 87.0848 26.2763 88.0567 24.948 88.0567C23.8789 88.0567 23.4577 87.3116 23.3281 86.7284L24.1057 86.5988C24.2029 86.9876 24.3972 87.506 24.9804 87.506C25.6931 87.506 25.9523 86.8904 25.9523 85.9833C25.9523 85.0761 25.6607 84.4606 25.0128 84.4606C24.462 84.4606 24.2353 84.9466 24.1381 85.3353L23.3929 85.2057C23.5873 84.5902 24.0085 83.8774 25.0776 83.8774C26.2763 83.8774 26.6975 84.8494 26.6975 85.9509Z" fill="#1A1A1A"/>
<path d="M20.376 83.8774C21.186 83.8774 21.7367 84.0718 22.1255 84.3958C22.5467 84.7522 22.7411 85.2705 22.7411 86.0805V87.9919H18.1406V86.0805C18.1406 85.3029 18.335 84.7846 18.7238 84.4282C19.1125 84.0718 19.5985 83.8774 20.376 83.8774ZM19.9873 84.4606C19.6309 84.4606 19.3393 84.655 19.1449 84.979C19.0154 85.2381 18.9182 85.5945 18.9182 86.1453V87.4736C19.8577 86.7608 20.538 85.9185 20.538 85.1085C20.5056 84.7198 20.3436 84.4606 19.9873 84.4606ZM21.2508 85.2057C21.2508 85.9833 20.7324 86.696 19.9225 87.4412C20.1169 87.4412 20.3113 87.4412 20.4732 87.4412H21.9635V86.1777C21.9635 85.1733 21.7043 84.7198 21.024 84.4606C21.1536 84.655 21.2508 84.8494 21.2508 85.2057Z" fill="#1A1A1A"/>
</g>
<defs>
<clipPath id="clip0_1380_3177">
<rect width="324" height="90" fill="white"/>
</clipPath>
</defs>
</svg>
