<svg width="31" height="30" viewBox="0 0 31 30" fill="none" xmlns="http://www.w3.org/2000/svg">
<path d="M10.9102 15H12.1602M20.9102 15H15.9102M20.9102 10H19.6602M15.9102 10H10.9102M10.9102 20H17.1602M4.66016 17.5V12.5C4.66016 7.78625 4.66016 5.42875 6.12516 3.965C7.59016 2.50125 9.94641 2.5 14.6602 2.5H17.1602C21.8739 2.5 24.2314 2.5 25.6952 3.965C26.5127 4.78125 26.8739 5.875 27.0327 7.5M27.1602 12.5V17.5C27.1602 22.2138 27.1602 24.5713 25.6952 26.035C24.2302 27.4988 21.8739 27.5 17.1602 27.5H14.6602C9.94641 27.5 7.58891 27.5 6.12516 26.035C5.30766 25.2188 4.94641 24.125 4.78766 22.5" stroke="#01295A" stroke-width="1.5" stroke-linecap="round"/>
</svg>
