<svg width="31" height="30" viewBox="0 0 31 30" fill="none" xmlns="http://www.w3.org/2000/svg">
<path d="M13.4102 12.5C16.1716 12.5 18.4102 10.2614 18.4102 7.5C18.4102 4.73858 16.1716 2.5 13.4102 2.5C10.6487 2.5 8.41016 4.73858 8.41016 7.5C8.41016 10.2614 10.6487 12.5 13.4102 12.5Z" stroke="#01295A" stroke-width="1.5"/>
<path d="M27.1602 12.5H24.6602M24.6602 12.5H22.1602M24.6602 12.5V10M24.6602 12.5V15M23.4077 22.5C23.4093 22.295 23.4102 22.0867 23.4102 21.875C23.4102 18.7688 18.9327 16.25 13.4102 16.25C7.88766 16.25 3.41016 18.7688 3.41016 21.875C3.41016 24.9812 3.41016 27.5 13.4102 27.5C16.1989 27.5 18.2102 27.3037 19.6602 26.9537" stroke="#01295A" stroke-width="1.5" stroke-linecap="round"/>
</svg>
