<svg width="17" height="14" viewBox="0 0 17 14" fill="none" xmlns="http://www.w3.org/2000/svg">
<path d="M14.8056 3.84764C14.816 3.99297 14.816 4.13833 14.816 4.28365C14.816 8.71629 11.4422 13.8237 5.27591 13.8237C3.37618 13.8237 1.61143 13.2735 0.126953 12.3185C0.396868 12.3496 0.656365 12.36 0.936664 12.36C2.50416 12.36 3.94714 11.8306 5.09942 10.9275C3.62533 10.8963 2.38999 9.93089 1.96437 8.60212C2.172 8.63325 2.37961 8.65402 2.59763 8.65402C2.89866 8.65402 3.19973 8.61248 3.48 8.53984C1.94363 8.22839 0.791306 6.87888 0.791306 5.24907V5.20757C1.23767 5.45671 1.75676 5.61242 2.30691 5.63316C1.40377 5.03105 0.812076 4.00335 0.812076 2.84068C0.812076 2.21783 0.978141 1.64688 1.26883 1.14859C2.9194 3.18326 5.40046 4.51199 8.18253 4.65735C8.13063 4.40821 8.09948 4.14871 8.09948 3.88918C8.09948 2.04135 9.59434 0.536133 11.4525 0.536133C12.4179 0.536133 13.2899 0.940989 13.9024 1.59499C14.6602 1.44966 15.3869 1.16936 16.0305 0.785277C15.7814 1.56387 15.2519 2.21787 14.5564 2.63307C15.2312 2.56044 15.8852 2.37354 16.4873 2.11405C16.0306 2.7784 15.4596 3.37009 14.8056 3.84764Z" fill="#039123"/>
</svg>
