<svg width="17" height="12" viewBox="0 0 17 12" fill="none" xmlns="http://www.w3.org/2000/svg">
<path d="M16.452 2.22859C16.2639 1.52012 15.7095 0.962148 15.0056 0.772793C13.7298 0.428711 8.61375 0.428711 8.61375 0.428711C8.61375 0.428711 3.49776 0.428711 2.22188 0.772793C1.51799 0.962178 0.963616 1.52012 0.775458 2.22859C0.433594 3.51274 0.433594 6.192 0.433594 6.192C0.433594 6.192 0.433594 8.87126 0.775458 10.1554C0.963616 10.8639 1.51799 11.3986 2.22188 11.588C3.49776 11.932 8.61375 11.932 8.61375 11.932C8.61375 11.932 13.7297 11.932 15.0056 11.588C15.7095 11.3986 16.2639 10.8639 16.452 10.1554C16.7939 8.87126 16.7939 6.192 16.7939 6.192C16.7939 6.192 16.7939 3.51274 16.452 2.22859ZM6.94053 8.62457V3.75944L11.2165 6.19206L6.94053 8.62457Z" fill="#039123"/>
</svg>
