<svg width="18" height="17" viewBox="0 0 18 17" fill="none" xmlns="http://www.w3.org/2000/svg">
<path d="M8.94553 3.98558C6.62373 3.98558 4.75095 5.85836 4.75095 8.18016C4.75095 10.502 6.62373 12.3747 8.94553 12.3747C11.2673 12.3747 13.1401 10.502 13.1401 8.18016C13.1401 5.85836 11.2673 3.98558 8.94553 3.98558ZM8.94553 10.9072C7.44512 10.9072 6.21851 9.68422 6.21851 8.18016C6.21851 6.6761 7.44147 5.45314 8.94553 5.45314C10.4496 5.45314 11.6726 6.6761 11.6726 8.18016C11.6726 9.68422 10.4459 10.9072 8.94553 10.9072ZM14.2901 3.814C14.2901 4.35795 13.852 4.79237 13.3117 4.79237C12.7677 4.79237 12.3333 4.35429 12.3333 3.814C12.3333 3.27371 12.7714 2.83563 13.3117 2.83563C13.852 2.83563 14.2901 3.27371 14.2901 3.814ZM17.0682 4.80697C17.0061 3.4964 16.7068 2.33549 15.7467 1.37903C14.7902 0.422561 13.6293 0.123209 12.3187 0.0574975C10.968 -0.0191658 6.91943 -0.0191658 5.56869 0.0574975C4.26177 0.119558 3.10086 0.41891 2.14075 1.37538C1.18063 2.33184 0.884928 3.49274 0.819216 4.80332C0.742553 6.15406 0.742553 10.2026 0.819216 11.5533C0.881277 12.8639 1.18063 14.0248 2.14075 14.9813C3.10086 15.9378 4.25811 16.2371 5.56869 16.3028C6.91943 16.3795 10.968 16.3795 12.3187 16.3028C13.6293 16.2408 14.7902 15.9414 15.7467 14.9813C16.7031 14.0248 17.0025 12.8639 17.0682 11.5533C17.1449 10.2026 17.1449 6.15771 17.0682 4.80697ZM15.3232 13.0026C15.0384 13.7182 14.4872 14.2694 13.768 14.5578C12.6911 14.9849 10.1356 14.8864 8.94553 14.8864C7.75542 14.8864 5.19633 14.9813 4.12304 14.5578C3.40752 14.2731 2.85627 13.7218 2.56787 13.0026C2.14075 11.9257 2.23931 9.37027 2.23931 8.18016C2.23931 6.99005 2.1444 4.43096 2.56787 3.35767C2.85262 2.64215 3.40387 2.0909 4.12304 1.8025C5.19998 1.37538 7.75542 1.47394 8.94553 1.47394C10.1356 1.47394 12.6947 1.37903 13.768 1.8025C14.4835 2.08725 15.0348 2.6385 15.3232 3.35767C15.7503 4.43461 15.6517 6.99005 15.6517 8.18016C15.6517 9.37027 15.7503 11.9294 15.3232 13.0026Z" fill="#039123"/>
</svg>
