<svg width="14" height="17" viewBox="0 0 14 17" fill="none" xmlns="http://www.w3.org/2000/svg">
<path d="M7.5346 0C4.17146 0 0.847656 2.24209 0.847656 5.87074C0.847656 8.1784 2.14571 9.48956 2.93241 9.48956C3.25692 9.48956 3.44376 8.58486 3.44376 8.32918C3.44376 8.02433 2.6669 7.37531 2.6669 6.10675C2.6669 3.47131 4.67298 1.6029 7.26909 1.6029C9.50135 1.6029 11.1534 2.87145 11.1534 5.20205C11.1534 6.94262 10.4552 10.2074 8.19346 10.2074C7.37726 10.2074 6.67906 9.6174 6.67906 8.7717C6.67906 7.53265 7.54443 6.33293 7.54443 5.05454C7.54443 2.88456 4.46647 3.27791 4.46647 5.90024C4.46647 6.45093 4.53531 7.06063 4.78115 7.56215C4.3288 9.50923 3.40443 12.4102 3.40443 14.4163C3.40443 15.0358 3.49293 15.6455 3.55194 16.265C3.66338 16.3896 3.60766 16.3765 3.77811 16.3142C5.43018 14.0524 5.37118 13.6099 6.11854 10.6499C6.52173 11.417 7.5641 11.83 8.39014 11.83C11.8713 11.83 13.4348 8.43735 13.4348 5.37906C13.4348 2.12409 10.6224 0 7.5346 0Z" fill="#039123"/>
</svg>
